<svg width="137" height="38" viewBox="0 0 137 38" fill="none" xmlns="http://www.w3.org/2000/svg">
<path d="M14.5537 0.381365V15.8254H10.7917V9.46737H4.93973V15.8254H1.17773V0.381365H4.93973V6.43137H10.7917V0.381365H14.5537Z" fill="#1577EA"/>
<path d="M28.3795 0.381365V3.39537H24.2875V15.8254H20.5255V3.39537H16.4335V0.381365H28.3795Z" fill="#1577EA"/>
<path d="M47.7576 0.381365V15.8254H43.9956V6.56336L40.5416 15.8254H37.5056L34.0296 6.54137V15.8254H30.2676V0.381365H34.7116L39.0456 11.0734L43.3356 0.381365H47.7576Z" fill="#1577EA"/>
<path d="M54.2249 12.9214H59.1529V15.8254H50.4629V0.381365H54.2249V12.9214Z" fill="#1577EA"/>
<path d="M77.3794 5.35337C77.3794 6.24803 77.174 7.06937 76.7634 7.81737C76.3527 8.5507 75.722 9.1447 74.8714 9.59937C74.0207 10.054 72.9647 10.2814 71.7034 10.2814H69.3714V15.8254H65.6094V0.381365H71.7034C72.9354 0.381365 73.9767 0.594032 74.8274 1.01936C75.678 1.4447 76.316 2.03136 76.7414 2.77936C77.1667 3.52736 77.3794 4.38536 77.3794 5.35337ZM71.4174 7.28937C72.136 7.28937 72.6714 7.1207 73.0234 6.78337C73.3754 6.44603 73.5514 5.96937 73.5514 5.35337C73.5514 4.73737 73.3754 4.2607 73.0234 3.92337C72.6714 3.58603 72.136 3.41737 71.4174 3.41737H69.3714V7.28937H71.4174Z" fill="#1577EA"/>
<path d="M88.9519 13.0974H83.1879L82.2639 15.8254H78.3259L83.9139 0.381365H88.2699L93.8579 15.8254H89.8759L88.9519 13.0974ZM87.9839 10.1934L86.0699 4.53937L84.1779 10.1934H87.9839Z" fill="#1577EA"/>
<path d="M105.811 5.26537C105.532 4.75203 105.129 4.36336 104.601 4.09936C104.087 3.8207 103.479 3.68136 102.775 3.68136C101.557 3.68136 100.582 4.0847 99.8486 4.89137C99.1153 5.68337 98.7486 6.7467 98.7486 8.08137C98.7486 9.50403 99.1299 10.6187 99.8926 11.4254C100.67 12.2174 101.733 12.6134 103.083 12.6134C104.007 12.6134 104.784 12.3787 105.415 11.9094C106.06 11.44 106.529 10.7654 106.823 9.88537H102.049V7.11337H110.233V10.6114C109.954 11.55 109.477 12.4227 108.803 13.2294C108.143 14.036 107.299 14.6887 106.273 15.1874C105.246 15.686 104.087 15.9354 102.797 15.9354C101.271 15.9354 99.9073 15.6054 98.7046 14.9454C97.5166 14.2707 96.5853 13.3394 95.9106 12.1514C95.2506 10.9634 94.9206 9.6067 94.9206 8.08137C94.9206 6.55603 95.2506 5.19937 95.9106 4.01137C96.5853 2.8087 97.5166 1.87737 98.7046 1.21737C99.8926 0.542698 101.249 0.205365 102.775 0.205365C104.623 0.205365 106.177 0.652698 107.439 1.54736C108.715 2.44203 109.558 3.68137 109.969 5.26537H105.811Z" fill="#1577EA"/>
<path d="M116.078 3.39537V6.51937H121.116V9.42337H116.078V12.8114H121.776V15.8254H112.316V0.381365H121.776V3.39537H116.078Z" fill="#1577EA"/>
<path d="M129.807 15.9794C128.677 15.9794 127.665 15.796 126.771 15.4294C125.876 15.0627 125.157 14.52 124.615 13.8014C124.087 13.0827 123.808 12.2174 123.779 11.2054H127.783C127.841 11.7774 128.039 12.2174 128.377 12.5254C128.714 12.8187 129.154 12.9654 129.697 12.9654C130.254 12.9654 130.694 12.8407 131.017 12.5914C131.339 12.3274 131.501 11.968 131.501 11.5134C131.501 11.132 131.369 10.8167 131.105 10.5674C130.855 10.318 130.54 10.1127 130.159 9.95137C129.792 9.79003 129.264 9.6067 128.575 9.40137C127.577 9.09337 126.763 8.78537 126.133 8.47737C125.502 8.16937 124.959 7.7147 124.505 7.11337C124.05 6.51203 123.823 5.72737 123.823 4.75937C123.823 3.32203 124.343 2.20003 125.385 1.39337C126.426 0.572032 127.783 0.161366 129.455 0.161366C131.156 0.161366 132.527 0.572032 133.569 1.39337C134.61 2.20003 135.167 3.32937 135.241 4.78136H131.171C131.141 4.2827 130.958 3.89403 130.621 3.61537C130.283 3.32203 129.851 3.17536 129.323 3.17536C128.868 3.17536 128.501 3.30003 128.223 3.54937C127.944 3.78403 127.805 4.1287 127.805 4.58336C127.805 5.08203 128.039 5.4707 128.509 5.74936C128.978 6.02803 129.711 6.3287 130.709 6.65137C131.706 6.9887 132.513 7.31137 133.129 7.61937C133.759 7.92737 134.302 8.3747 134.757 8.96137C135.211 9.54803 135.439 10.3034 135.439 11.2274C135.439 12.1074 135.211 12.9067 134.757 13.6254C134.317 14.344 133.671 14.916 132.821 15.3414C131.97 15.7667 130.965 15.9794 129.807 15.9794Z" fill="#1577EA"/>
<path d="M4.13 27.4086H2.352V34.2266H1.372V27.4086H0.307999V26.5826H1.372V26.0506C1.372 25.22 1.582 24.6086 2.002 24.2166C2.43133 23.8246 3.122 23.6286 4.074 23.6286V24.4686C3.43933 24.4686 2.99133 24.59 2.73 24.8326C2.478 25.0753 2.352 25.4813 2.352 26.0506V26.5826H4.13V27.4086Z" fill="black"/>
<path d="M6.65273 27.9406C6.8674 27.4646 7.19407 27.096 7.63273 26.8346C8.08073 26.5733 8.62673 26.4426 9.27073 26.4426V27.4646H9.00473C8.2954 27.4646 7.72607 27.656 7.29673 28.0386C6.8674 28.4213 6.65273 29.0606 6.65273 29.9566V34.2266H5.67273V26.5826H6.65273V27.9406Z" fill="black"/>
<path d="M17.661 30.0126C17.661 30.3486 17.6517 30.6053 17.633 30.7826H11.291C11.319 31.3613 11.459 31.856 11.711 32.2666C11.963 32.6773 12.2943 32.99 12.705 33.2046C13.1157 33.41 13.5637 33.5126 14.049 33.5126C14.6837 33.5126 15.2157 33.3586 15.645 33.0506C16.0837 32.7426 16.373 32.3273 16.513 31.8046H17.549C17.3623 32.5513 16.961 33.1626 16.345 33.6386C15.7383 34.1053 14.973 34.3386 14.049 34.3386C13.3303 34.3386 12.6863 34.18 12.117 33.8626C11.5477 33.536 11.0997 33.0786 10.773 32.4906C10.4557 31.8933 10.297 31.198 10.297 30.4046C10.297 29.6113 10.4557 28.916 10.773 28.3186C11.0903 27.7213 11.5337 27.264 12.103 26.9466C12.6723 26.6293 13.321 26.4706 14.049 26.4706C14.777 26.4706 15.4117 26.6293 15.953 26.9466C16.5037 27.264 16.9237 27.6933 17.213 28.2346C17.5117 28.7666 17.661 29.3593 17.661 30.0126ZM16.667 29.9846C16.6763 29.4153 16.5597 28.93 16.317 28.5286C16.0837 28.1273 15.7617 27.824 15.351 27.6186C14.9403 27.4133 14.4923 27.3106 14.007 27.3106C13.279 27.3106 12.6583 27.544 12.145 28.0106C11.6317 28.4773 11.347 29.1353 11.291 29.9846H16.667Z" fill="black"/>
<path d="M26.37 30.0126C26.37 30.3486 26.3607 30.6053 26.342 30.7826H20C20.028 31.3613 20.168 31.856 20.42 32.2666C20.672 32.6773 21.0033 32.99 21.414 33.2046C21.8246 33.41 22.2726 33.5126 22.758 33.5126C23.3927 33.5126 23.9247 33.3586 24.354 33.0506C24.7927 32.7426 25.082 32.3273 25.222 31.8046H26.258C26.0713 32.5513 25.67 33.1626 25.054 33.6386C24.4473 34.1053 23.682 34.3386 22.758 34.3386C22.0393 34.3386 21.3953 34.18 20.826 33.8626C20.2566 33.536 19.8086 33.0786 19.482 32.4906C19.1646 31.8933 19.006 31.198 19.006 30.4046C19.006 29.6113 19.1646 28.916 19.482 28.3186C19.7993 27.7213 20.2426 27.264 20.812 26.9466C21.3813 26.6293 22.03 26.4706 22.758 26.4706C23.486 26.4706 24.1206 26.6293 24.662 26.9466C25.2127 27.264 25.6327 27.6933 25.922 28.2346C26.2206 28.7666 26.37 29.3593 26.37 30.0126ZM25.376 29.9846C25.3853 29.4153 25.2687 28.93 25.026 28.5286C24.7927 28.1273 24.4706 27.824 24.06 27.6186C23.6493 27.4133 23.2013 27.3106 22.716 27.3106C21.988 27.3106 21.3673 27.544 20.854 28.0106C20.3406 28.4773 20.056 29.1353 20 29.9846H25.376Z" fill="black"/>
<path d="M35.6448 26.4426C36.2234 26.4426 36.7414 26.564 37.1988 26.8066C37.6654 27.0493 38.0294 27.4226 38.2908 27.9266C38.5614 28.4213 38.6968 29.028 38.6968 29.7466V34.2266H37.7308V29.8586C37.7308 29.028 37.5208 28.3933 37.1008 27.9546C36.6901 27.516 36.1254 27.2966 35.4068 27.2966C34.6694 27.2966 34.0814 27.53 33.6428 27.9966C33.2041 28.4633 32.9848 29.1493 32.9848 30.0546V34.2266H32.0048V23.8666H32.9848V27.8846C33.2274 27.4273 33.5821 27.0726 34.0488 26.8206C34.5248 26.5686 35.0568 26.4426 35.6448 26.4426Z" fill="black"/>
<path d="M42.1381 27.4086V32.1546C42.1381 32.6213 42.2268 32.9433 42.4041 33.1206C42.5815 33.298 42.8941 33.3866 43.3421 33.3866H44.2381V34.2266H43.1881C42.4975 34.2266 41.9841 34.068 41.6481 33.7506C41.3121 33.424 41.1441 32.892 41.1441 32.1546V27.4086H40.0801V26.5826H41.1441V24.6646H42.1381V26.5826H44.2381V27.4086H42.1381Z" fill="black"/>
<path d="M54.9544 26.4426C55.8504 26.4426 56.5784 26.7273 57.1384 27.2966C57.7077 27.8566 57.9924 28.6733 57.9924 29.7466V34.2266H57.0264V29.8586C57.0264 29.028 56.8257 28.3933 56.4244 27.9546C56.023 27.516 55.477 27.2966 54.7864 27.2966C54.0677 27.2966 53.4937 27.5346 53.0644 28.0106C52.635 28.4866 52.4204 29.1773 52.4204 30.0826V34.2266H51.4544V29.8586C51.4544 29.028 51.2537 28.3933 50.8524 27.9546C50.451 27.516 49.9004 27.2966 49.2004 27.2966C48.4817 27.2966 47.9077 27.5346 47.4784 28.0106C47.049 28.4866 46.8344 29.1773 46.8344 30.0826V34.2266H45.8544V26.5826H46.8344V27.8986C47.077 27.4226 47.4224 27.0633 47.8704 26.8206C48.3184 26.5686 48.8177 26.4426 49.3684 26.4426C50.031 26.4426 50.6097 26.6013 51.1044 26.9186C51.6084 27.236 51.9724 27.7026 52.1964 28.3186C52.4017 27.712 52.7517 27.25 53.2464 26.9326C53.7504 26.606 54.3197 26.4426 54.9544 26.4426Z" fill="black"/>
<path d="M61.1488 23.8666V34.2266H60.1688V23.8666H61.1488Z" fill="black"/>
<path d="M68.4838 27.4086V32.1546C68.4838 32.6213 68.5725 32.9433 68.7498 33.1206C68.9272 33.298 69.2398 33.3866 69.6878 33.3866H70.5838V34.2266H69.5338C68.8432 34.2266 68.3298 34.068 67.9938 33.7506C67.6578 33.424 67.4898 32.892 67.4898 32.1546V27.4086H66.4258V26.5826H67.4898V24.6646H68.4838V26.5826H70.5838V27.4086H68.4838Z" fill="black"/>
<path d="M79.1161 30.0126C79.1161 30.3486 79.1067 30.6053 79.0881 30.7826H72.7461C72.7741 31.3613 72.9141 31.856 73.1661 32.2666C73.4181 32.6773 73.7494 32.99 74.1601 33.2046C74.5707 33.41 75.0187 33.5126 75.5041 33.5126C76.1387 33.5126 76.6707 33.3586 77.1001 33.0506C77.5387 32.7426 77.8281 32.3273 77.9681 31.8046H79.0041C78.8174 32.5513 78.4161 33.1626 77.8001 33.6386C77.1934 34.1053 76.4281 34.3386 75.5041 34.3386C74.7854 34.3386 74.1414 34.18 73.5721 33.8626C73.0027 33.536 72.5547 33.0786 72.2281 32.4906C71.9107 31.8933 71.7521 31.198 71.7521 30.4046C71.7521 29.6113 71.9107 28.916 72.2281 28.3186C72.5454 27.7213 72.9887 27.264 73.5581 26.9466C74.1274 26.6293 74.7761 26.4706 75.5041 26.4706C76.2321 26.4706 76.8667 26.6293 77.4081 26.9466C77.9587 27.264 78.3787 27.6933 78.6681 28.2346C78.9667 28.7666 79.1161 29.3593 79.1161 30.0126ZM78.1221 29.9846C78.1314 29.4153 78.0147 28.93 77.7721 28.5286C77.5387 28.1273 77.2167 27.824 76.8061 27.6186C76.3954 27.4133 75.9474 27.3106 75.4621 27.3106C74.7341 27.3106 74.1134 27.544 73.6001 28.0106C73.0867 28.4773 72.8021 29.1353 72.7461 29.9846H78.1221Z" fill="black"/>
<path d="M90.0091 26.4426C90.9051 26.4426 91.6331 26.7273 92.1931 27.2966C92.7624 27.8566 93.0471 28.6733 93.0471 29.7466V34.2266H92.0811V29.8586C92.0811 29.028 91.8804 28.3933 91.4791 27.9546C91.0777 27.516 90.5317 27.2966 89.8411 27.2966C89.1224 27.2966 88.5484 27.5346 88.1191 28.0106C87.6897 28.4866 87.4751 29.1773 87.4751 30.0826V34.2266H86.5091V29.8586C86.5091 29.028 86.3084 28.3933 85.9071 27.9546C85.5057 27.516 84.9551 27.2966 84.2551 27.2966C83.5364 27.2966 82.9624 27.5346 82.5331 28.0106C82.1037 28.4866 81.8891 29.1773 81.8891 30.0826V34.2266H80.9091V26.5826H81.8891V27.8986C82.1317 27.4226 82.4771 27.0633 82.9251 26.8206C83.3731 26.5686 83.8724 26.4426 84.4231 26.4426C85.0857 26.4426 85.6644 26.6013 86.1591 26.9186C86.6631 27.236 87.0271 27.7026 87.2511 28.3186C87.4564 27.712 87.8064 27.25 88.3011 26.9326C88.8051 26.606 89.3744 26.4426 90.0091 26.4426Z" fill="black"/>
<path d="M96.1895 28.2626C96.4322 27.7493 96.8148 27.3246 97.3375 26.9886C97.8695 26.6433 98.4995 26.4706 99.2275 26.4706C99.9182 26.4706 100.539 26.634 101.09 26.9606C101.65 27.278 102.084 27.7353 102.392 28.3326C102.709 28.9206 102.868 29.6066 102.868 30.3906C102.868 31.1746 102.709 31.8653 102.392 32.4626C102.084 33.06 101.65 33.522 101.09 33.8486C100.539 34.1753 99.9182 34.3386 99.2275 34.3386C98.5089 34.3386 97.8835 34.1706 97.3515 33.8346C96.8195 33.4893 96.4322 33.06 96.1895 32.5466V37.8386H95.2235V26.5826H96.1895V28.2626ZM101.874 30.3906C101.874 29.756 101.748 29.21 101.496 28.7526C101.253 28.286 100.917 27.9313 100.488 27.6886C100.058 27.446 99.5729 27.3246 99.0315 27.3246C98.5089 27.3246 98.0282 27.4506 97.5895 27.7026C97.1602 27.9546 96.8195 28.314 96.5675 28.7806C96.3155 29.2473 96.1895 29.7886 96.1895 30.4046C96.1895 31.0206 96.3155 31.562 96.5675 32.0286C96.8195 32.4953 97.1602 32.8546 97.5895 33.1066C98.0282 33.3586 98.5089 33.4846 99.0315 33.4846C99.5729 33.4846 100.058 33.3633 100.488 33.1206C100.917 32.8686 101.253 32.5093 101.496 32.0426C101.748 31.5666 101.874 31.016 101.874 30.3906Z" fill="black"/>
<path d="M105.651 23.8666V34.2266H104.671V23.8666H105.651Z" fill="black"/>
<path d="M107.422 30.3906C107.422 29.6066 107.576 28.9206 107.884 28.3326C108.201 27.7353 108.635 27.278 109.186 26.9606C109.746 26.634 110.376 26.4706 111.076 26.4706C111.804 26.4706 112.429 26.6386 112.952 26.9746C113.484 27.3106 113.867 27.74 114.1 28.2626V26.5826H115.08V34.2266H114.1V32.5326C113.857 33.0553 113.47 33.4893 112.938 33.8346C112.415 34.1706 111.79 34.3386 111.062 34.3386C110.371 34.3386 109.746 34.1753 109.186 33.8486C108.635 33.522 108.201 33.06 107.884 32.4626C107.576 31.8653 107.422 31.1746 107.422 30.3906ZM114.1 30.4046C114.1 29.7886 113.974 29.2473 113.722 28.7806C113.47 28.314 113.125 27.9546 112.686 27.7026C112.257 27.4506 111.781 27.3246 111.258 27.3246C110.717 27.3246 110.231 27.446 109.802 27.6886C109.373 27.9313 109.032 28.286 108.78 28.7526C108.537 29.21 108.416 29.756 108.416 30.3906C108.416 31.016 108.537 31.5666 108.78 32.0426C109.032 32.5093 109.373 32.8686 109.802 33.1206C110.231 33.3633 110.717 33.4846 111.258 33.4846C111.781 33.4846 112.257 33.3586 112.686 33.1066C113.125 32.8546 113.47 32.4953 113.722 32.0286C113.974 31.562 114.1 31.0206 114.1 30.4046Z" fill="black"/>
<path d="M118.591 27.4086V32.1546C118.591 32.6213 118.68 32.9433 118.857 33.1206C119.035 33.298 119.347 33.3866 119.795 33.3866H120.691V34.2266H119.641C118.951 34.2266 118.437 34.068 118.101 33.7506C117.765 33.424 117.597 32.892 117.597 32.1546V27.4086H116.533V26.5826H117.597V24.6646H118.591V26.5826H120.691V27.4086H118.591Z" fill="black"/>
<path d="M129.223 30.0126C129.223 30.3486 129.214 30.6053 129.195 30.7826H122.854C122.882 31.3613 123.021 31.856 123.273 32.2666C123.525 32.6773 123.857 32.99 124.268 33.2046C124.678 33.41 125.126 33.5126 125.611 33.5126C126.246 33.5126 126.778 33.3586 127.207 33.0506C127.646 32.7426 127.936 32.3273 128.076 31.8046H129.111C128.925 32.5513 128.523 33.1626 127.908 33.6386C127.301 34.1053 126.535 34.3386 125.611 34.3386C124.893 34.3386 124.249 34.18 123.679 33.8626C123.11 33.536 122.662 33.0786 122.335 32.4906C122.018 31.8933 121.859 31.198 121.859 30.4046C121.859 29.6113 122.018 28.916 122.335 28.3186C122.653 27.7213 123.096 27.264 123.665 26.9466C124.235 26.6293 124.883 26.4706 125.611 26.4706C126.339 26.4706 126.974 26.6293 127.515 26.9466C128.066 27.264 128.486 27.6933 128.775 28.2346C129.074 28.7666 129.223 29.3593 129.223 30.0126ZM128.229 29.9846C128.239 29.4153 128.122 28.93 127.88 28.5286C127.646 28.1273 127.324 27.824 126.913 27.6186C126.503 27.4133 126.055 27.3106 125.569 27.3106C124.841 27.3106 124.221 27.544 123.707 28.0106C123.194 28.4773 122.91 29.1353 122.854 29.9846H128.229Z" fill="black"/>
<path d="M133.648 34.3386C132.771 34.3386 132.052 34.138 131.492 33.7366C130.942 33.326 130.634 32.7706 130.568 32.0706H131.576C131.623 32.5 131.824 32.85 132.178 33.1206C132.542 33.382 133.028 33.5126 133.634 33.5126C134.166 33.5126 134.582 33.3866 134.88 33.1346C135.188 32.8826 135.342 32.57 135.342 32.1966C135.342 31.9353 135.258 31.7206 135.09 31.5526C134.922 31.3846 134.708 31.254 134.446 31.1606C134.194 31.058 133.849 30.9506 133.41 30.8386C132.841 30.6893 132.379 30.54 132.024 30.3906C131.67 30.2413 131.366 30.022 131.114 29.7326C130.872 29.434 130.75 29.0373 130.75 28.5426C130.75 28.1693 130.862 27.824 131.086 27.5066C131.31 27.1893 131.628 26.9373 132.038 26.7506C132.449 26.564 132.916 26.4706 133.438 26.4706C134.26 26.4706 134.922 26.6806 135.426 27.1006C135.93 27.5113 136.201 28.0806 136.238 28.8086H135.258C135.23 28.3606 135.053 28.0013 134.726 27.7306C134.409 27.4506 133.97 27.3106 133.41 27.3106C132.916 27.3106 132.514 27.4273 132.206 27.6606C131.898 27.894 131.744 28.1833 131.744 28.5286C131.744 28.8273 131.833 29.0746 132.01 29.2706C132.197 29.4573 132.426 29.6066 132.696 29.7186C132.967 29.8213 133.331 29.938 133.788 30.0686C134.339 30.218 134.778 30.3626 135.104 30.5026C135.431 30.6426 135.711 30.848 135.944 31.1186C136.178 31.3893 136.299 31.7486 136.308 32.1966C136.308 32.6073 136.196 32.976 135.972 33.3026C135.748 33.62 135.436 33.872 135.034 34.0586C134.633 34.2453 134.171 34.3386 133.648 34.3386Z" fill="black"/>
</svg>
