<svg width="500" height="501" viewBox="0 0 500 501" fill="none" xmlns="http://www.w3.org/2000/svg">
<path d="M430.21 139.332H411.01V219.212H430.21V139.332Z" fill="#EBEBEB"/>
<path d="M405 142.702H436.22L420.61 124.372L405 142.702Z" fill="#EBEBEB"/>
<path d="M88.99 90.932H69.79V123.392H88.99V90.932Z" fill="#EBEBEB"/>
<path d="M63.78 94.302H95L79.39 75.972L63.78 94.302Z" fill="#EBEBEB"/>
<path d="M398.24 108.692H379.04V141.152H398.24V108.692Z" fill="#EBEBEB"/>
<path d="M373.03 112.072H404.25L388.64 93.732L373.03 112.072Z" fill="#EBEBEB"/>
<path d="M87.59 283.022L74.47 283.302L67.81 283.412C65.58 283.462 63.34 283.412 61.11 283.472H60.67V283.022L60.61 271.832V271.332H61.11L74.35 271.402C78.77 271.402 83.18 271.512 87.59 271.562H87.87V271.832C87.87 273.732 87.78 275.622 87.74 277.492L87.59 283.022ZM87.59 283.022L87.45 277.372C87.45 275.512 87.34 273.662 87.32 271.832L87.59 272.112C83.18 272.112 78.77 272.262 74.35 272.272L61.11 272.332L61.61 271.832V283.022L61.16 282.582C63.34 282.582 65.52 282.582 67.71 282.632L74.29 282.742L87.59 283.022Z" fill="#EBEBEB"/>
<path d="M72.82 297.132L59.7 297.412L53 297.512C50.77 297.562 48.53 297.512 46.3 297.572H45.9V297.122L45.84 285.932V285.432H46.34L59.58 285.502C63.99 285.502 68.41 285.612 72.82 285.662H73.1V285.932C73.1 287.832 73.02 289.722 72.97 291.592L72.82 297.132ZM72.82 297.132L72.68 291.512C72.63 289.652 72.57 287.802 72.55 285.972L72.82 286.252C68.41 286.302 63.99 286.402 59.58 286.412L46.34 286.472L46.84 285.972L46.79 297.162L46.34 296.722C48.52 296.722 50.7 296.722 52.89 296.772L59.47 296.882L72.82 297.132Z" fill="#EBEBEB"/>
<path d="M453.66 297.132L440.53 297.412L433.87 297.522C431.65 297.572 429.41 297.522 427.18 297.582H426.73V297.132L426.68 285.942V285.442H427.18L440.42 285.512C444.83 285.512 449.25 285.622 453.66 285.672H453.93V285.942C453.93 287.842 453.85 289.732 453.8 291.602L453.66 297.132ZM453.66 297.132L453.52 291.482C453.52 289.622 453.4 287.772 453.39 285.942L453.66 286.222C449.25 286.272 444.83 286.372 440.42 286.382L427.18 286.442L427.68 285.942L427.62 297.132L427.18 296.692C429.36 296.692 431.54 296.692 433.72 296.742L440.3 296.852L453.66 297.132Z" fill="#EBEBEB"/>
<path d="M438.89 56.302L425.76 56.582L419.1 56.692C416.88 56.692 414.64 56.692 412.41 56.752H412V56.302V45.112V44.612H412.51L425.75 44.682C430.16 44.682 434.57 44.792 438.99 44.842H439.26V45.112C439.26 47.012 439.17 48.902 439.13 50.772L438.89 56.302ZM438.89 56.302L438.75 50.652C438.7 48.792 438.63 46.942 438.61 45.112L438.89 45.392C434.47 45.392 430.06 45.542 425.65 45.552L412.41 45.612L412.91 45.112L412.85 56.302L412.41 55.862C414.59 55.862 416.76 55.862 418.95 55.862L425.53 55.972L438.89 56.302Z" fill="#EBEBEB"/>
<path d="M453.66 70.412L440.53 70.692L433.87 70.802C431.65 70.802 429.41 70.802 427.18 70.862H426.73V70.412L426.68 59.222V58.722H427.18L440.42 58.792C444.83 58.792 449.25 58.902 453.66 58.952H453.93V59.222C453.93 61.122 453.85 63.012 453.8 64.882L453.66 70.412ZM453.66 70.412L453.52 64.762C453.52 62.902 453.4 61.052 453.39 59.222L453.66 59.492C449.25 59.552 444.83 59.652 440.42 59.662L427.18 59.722L427.68 59.222L427.62 70.412L427.18 69.972C429.36 69.972 431.54 69.972 433.72 70.022L440.3 70.132L453.66 70.412Z" fill="#EBEBEB"/>
<path d="M279.72 340.712L266.59 340.992L259.93 341.112C257.7 341.112 255.47 341.112 253.23 341.112H252.79V340.662V329.482V328.972H253.29L266.53 329.032C270.95 329.032 275.36 329.142 279.78 329.192H280V329.512C280 331.402 279.91 333.292 279.87 335.162L279.72 340.712ZM279.72 340.712L279.57 335.062C279.57 333.202 279.46 331.362 279.44 329.532L279.72 329.802C275.3 329.802 270.89 329.962 266.47 329.962L253.23 330.022L253.73 329.532V340.712L253.28 340.272C255.47 340.272 257.64 340.272 259.83 340.322L266.41 340.442L279.72 340.712Z" fill="#EBEBEB"/>
<path d="M294.85 354.822L281.73 355.102L275.07 355.222C272.84 355.222 270.6 355.222 268.37 355.272H267.93V354.822L267.87 343.632V343.132H268.37L281.61 343.192C286.02 343.192 290.44 343.302 294.85 343.352H295.13V343.612C295.13 345.512 295.05 347.402 295 349.272L294.85 354.822ZM294.85 354.822L294.71 349.172C294.71 347.312 294.6 345.472 294.58 343.632L294.85 343.912C290.44 343.962 286.02 344.072 281.61 344.072L268.37 344.132L268.87 343.632L268.82 354.822L268.37 354.382C270.55 354.382 272.73 354.382 274.92 354.432L281.5 354.552L294.85 354.822Z" fill="#EBEBEB"/>
<path d="M264.8 354.822L251.68 355.102L245.02 355.222C242.79 355.222 240.56 355.222 238.32 355.272H237.88V354.822L237.82 343.632V343.132H238.32L251.56 343.192C255.98 343.192 260.39 343.302 264.8 343.352H265.08V343.612C265.08 345.512 264.99 347.402 264.95 349.272L264.8 354.822ZM264.8 354.822L264.66 349.172C264.66 347.312 264.55 345.472 264.53 343.632L264.8 343.912C260.39 343.962 255.98 344.072 251.56 344.072L238.32 344.132L238.82 343.632V354.822L238.37 354.382C240.56 354.382 242.73 354.382 244.92 354.432L251.5 354.552L264.8 354.822Z" fill="#EBEBEB"/>
<path d="M87.59 56.302L74.47 56.582L67.81 56.692C65.58 56.692 63.34 56.692 61.11 56.752H60.67V56.302L60.61 45.112V44.612H61.11L74.35 44.682C78.77 44.682 83.18 44.792 87.59 44.842H87.87V45.112C87.87 47.012 87.78 48.902 87.74 50.772L87.59 56.302ZM87.59 56.302L87.45 50.652C87.45 48.792 87.34 46.942 87.32 45.112L87.59 45.392C83.18 45.392 78.77 45.542 74.35 45.552L61.11 45.612L61.61 45.112V56.302L61.16 55.862C63.34 55.862 65.52 55.862 67.71 55.862L74.29 55.972L87.59 56.302Z" fill="#EBEBEB"/>
<path d="M407.1 312.602H303.07V456.572H407.1V312.602Z" fill="#EBEBEB"/>
<path d="M412.14 307.252H298.03V312.592H412.14V307.252Z" fill="#DBDBDB"/>
<path d="M448.04 307.252H412.15V312.592H448.04V307.252Z" fill="#EBEBEB"/>
<path d="M442.36 312.602H407.11V456.572H442.36V312.602Z" fill="#DBDBDB"/>
<path d="M395.9 379.222H314.28V333.102H395.9V379.222ZM314.53 378.972H395.65V333.352H314.53V378.972Z" fill="#C7C7C7"/>
<path d="M359.59 346.582H343.7V355.712H359.59V346.582Z" fill="#C7C7C7"/>
<path d="M364.41 355.152H348.27V347.152H364.41V355.152ZM348.52 354.902H364.16V347.392H348.52V354.902Z" fill="#C7C7C7"/>
<path d="M395.9 437.182H314.28V391.062H395.9V437.182ZM314.53 436.932H395.65V391.312H314.53V436.932Z" fill="#C7C7C7"/>
<path d="M359.59 404.542H343.7V413.672H359.59V404.542Z" fill="#C7C7C7"/>
<path d="M364.41 413.112H348.27V405.112H364.41V413.112ZM348.52 412.862H364.16V405.352H348.52V412.862Z" fill="#C7C7C7"/>
<path d="M36.11 456.562L89.58 456.322L143.06 456.232L250 456.062L356.94 456.232L410.42 456.322L463.89 456.562L410.42 456.812L356.94 456.892L250 457.062L143.06 456.892L89.58 456.812L36.11 456.562Z" fill="#263238"/>
<path d="M386.09 55.292H113.92V251.342H386.09V55.292Z" fill="white"/>
<path d="M386.33 251.602H113.67V55.042H386.33V251.602ZM114.17 251.102H385.83V55.512H114.17V251.102Z" fill="#C7C7C7"/>
<path d="M386.09 55.292H113.92V64.252H386.09V55.292Z" fill="#37474F"/>
<path d="M121 59.772C120.992 60.2105 120.854 60.6369 120.604 60.9973C120.354 61.3577 120.003 61.6359 119.595 61.7969C119.187 61.9579 118.741 61.9944 118.312 61.9018C117.883 61.8092 117.491 61.5917 117.186 61.2767C116.881 60.9617 116.676 60.5633 116.597 60.1319C116.518 59.7005 116.568 59.2553 116.742 58.8525C116.916 58.4498 117.205 58.1075 117.573 57.8689C117.941 57.6303 118.371 57.5061 118.81 57.512C119.103 57.5146 119.392 57.5753 119.661 57.6907C119.93 57.806 120.174 57.9737 120.378 58.184C120.581 58.3942 120.741 58.6429 120.848 58.9155C120.955 59.1881 121.007 59.4793 121 59.772Z" fill="#C7C7C7"/>
<path d="M130.1 59.772C130.092 60.2093 129.955 60.6345 129.707 60.9943C129.458 61.354 129.108 61.6324 128.702 61.7943C128.296 61.9562 127.851 61.9945 127.423 61.9043C126.995 61.8142 126.603 61.5997 126.297 61.2877C125.99 60.9757 125.783 60.5801 125.7 60.1506C125.618 59.7211 125.664 59.2768 125.833 58.8734C126.002 58.4701 126.287 58.1257 126.651 57.8835C127.015 57.6413 127.443 57.5121 127.88 57.512C128.175 57.5106 128.468 57.5684 128.741 57.6819C129.013 57.7955 129.26 57.9626 129.467 58.1733C129.674 58.3839 129.837 58.634 129.945 58.9086C130.054 59.1832 130.107 59.4767 130.1 59.772Z" fill="white"/>
<path d="M139.17 59.772C139.162 60.2114 139.024 60.6385 138.773 60.9993C138.522 61.36 138.169 61.6382 137.76 61.7985C137.351 61.9588 136.903 61.994 136.474 61.8998C136.045 61.8055 135.653 61.586 135.349 61.269C135.045 60.952 134.841 60.5518 134.764 60.1191C134.688 59.6864 134.741 59.2407 134.918 58.8383C135.095 58.436 135.387 58.0952 135.758 57.8591C136.128 57.623 136.561 57.5022 137 57.512C137.291 57.5172 137.578 57.5799 137.845 57.6964C138.112 57.8129 138.353 57.981 138.555 58.191C138.756 58.401 138.914 58.6488 139.02 58.9201C139.126 59.1914 139.177 59.4809 139.17 59.772Z" fill="#1577EA"/>
<path d="M188.69 153.562C188.689 157.548 190.196 161.386 192.907 164.308C195.619 167.229 199.335 169.017 203.31 169.312H292.75C297.439 169.19 301.908 167.298 305.259 164.016C308.61 160.734 310.595 156.306 310.815 151.621C311.036 146.935 309.475 142.34 306.446 138.759C303.418 135.177 299.147 132.874 294.49 132.312C294.258 125.057 291.51 118.109 286.716 112.658C281.923 107.207 275.384 103.592 268.218 102.434C261.052 101.276 253.707 102.645 247.44 106.308C241.174 109.971 236.376 115.7 233.87 122.512C231.303 121.202 228.462 120.517 225.58 120.512C220.856 120.511 216.309 122.311 212.866 125.546C209.423 128.781 207.343 133.207 207.05 137.922C206.201 137.781 205.341 137.71 204.48 137.712C202.401 137.712 200.343 138.122 198.424 138.92C196.504 139.717 194.761 140.885 193.294 142.358C191.826 143.831 190.665 145.578 189.875 147.501C189.085 149.424 188.682 151.483 188.69 153.562Z" fill="#1577EA"/>
<path d="M259.6 146.372H240.4V169.352H259.6V146.372Z" fill="white"/>
<path d="M234.39 149.742H265.61L250 131.412L234.39 149.742Z" fill="white"/>
<path d="M302.15 192.882H197.85V200.562H302.15V192.882Z" fill="#EBEBEB"/>
<path d="M201.69 193.862H198.82V199.582H201.69V193.862Z" fill="#1577EA"/>
<path d="M205.35 193.862H202.48V199.582H205.35V193.862Z" fill="#1577EA"/>
<path d="M209.01 193.862H206.14V199.582H209.01V193.862Z" fill="#1577EA"/>
<path d="M212.67 193.862H209.8V199.582H212.67V193.862Z" fill="#1577EA"/>
<path d="M216.32 193.862H213.45V199.582H216.32V193.862Z" fill="#1577EA"/>
<path d="M219.98 193.862H217.11V199.582H219.98V193.862Z" fill="#1577EA"/>
<path d="M223.64 193.862H220.77V199.582H223.64V193.862Z" fill="#1577EA"/>
<path d="M227.3 193.862H224.43V199.582H227.3V193.862Z" fill="#1577EA"/>
<path d="M230.96 193.862H228.09V199.582H230.96V193.862Z" fill="#1577EA"/>
<path d="M234.61 193.862H231.74V199.582H234.61V193.862Z" fill="#1577EA"/>
<path d="M238.27 193.862H235.4V199.582H238.27V193.862Z" fill="#1577EA"/>
<path d="M241.93 193.862H239.06V199.582H241.93V193.862Z" fill="#1577EA"/>
<path d="M245.59 193.862H242.72V199.582H245.59V193.862Z" fill="#1577EA"/>
<path d="M249.25 193.862H246.38V199.582H249.25V193.862Z" fill="#1577EA"/>
<path d="M252.9 193.862H250.03V199.582H252.9V193.862Z" fill="#1577EA"/>
<path d="M237.25 187.582C237.012 187.583 236.776 187.537 236.556 187.447C236.336 187.356 236.135 187.223 235.967 187.055C235.799 186.886 235.666 186.686 235.575 186.466C235.485 186.246 235.439 186.01 235.44 185.772V183.512C235.439 183.466 235.446 183.421 235.463 183.379C235.479 183.336 235.504 183.298 235.536 183.265C235.568 183.232 235.606 183.206 235.648 183.189C235.689 183.171 235.734 183.162 235.78 183.162C235.874 183.162 235.964 183.198 236.031 183.264C236.098 183.329 236.137 183.418 236.14 183.512V185.742C236.125 185.897 236.143 186.054 236.192 186.202C236.242 186.35 236.322 186.486 236.426 186.601C236.531 186.717 236.659 186.809 236.802 186.872C236.945 186.935 237.099 186.968 237.255 186.968C237.411 186.968 237.565 186.935 237.708 186.872C237.851 186.809 237.978 186.717 238.083 186.601C238.188 186.486 238.268 186.35 238.317 186.202C238.367 186.054 238.385 185.897 238.37 185.742V183.512C238.361 183.462 238.364 183.41 238.377 183.361C238.391 183.312 238.415 183.266 238.447 183.227C238.48 183.188 238.521 183.157 238.567 183.136C238.614 183.114 238.664 183.103 238.715 183.103C238.766 183.103 238.816 183.114 238.862 183.136C238.909 183.157 238.95 183.188 238.982 183.227C239.015 183.266 239.039 183.312 239.053 183.361C239.066 183.41 239.069 183.462 239.06 183.512V185.742C239.065 185.983 239.022 186.222 238.934 186.445C238.845 186.669 238.712 186.873 238.544 187.044C238.375 187.216 238.173 187.352 237.951 187.444C237.729 187.537 237.491 187.583 237.25 187.582Z" fill="#263238"/>
<path d="M242 185.882H241.23V187.242C241.23 187.335 241.193 187.424 241.127 187.489C241.062 187.555 240.973 187.592 240.88 187.592C240.787 187.592 240.698 187.555 240.632 187.489C240.567 187.424 240.53 187.335 240.53 187.242V183.512C240.53 183.419 240.567 183.33 240.632 183.265C240.698 183.199 240.787 183.162 240.88 183.162H242C242.186 183.146 242.374 183.169 242.551 183.229C242.728 183.289 242.891 183.386 243.029 183.512C243.167 183.639 243.277 183.792 243.352 183.964C243.427 184.135 243.466 184.32 243.466 184.507C243.466 184.694 243.427 184.879 243.352 185.05C243.277 185.222 243.167 185.375 243.029 185.502C242.891 185.628 242.728 185.725 242.551 185.785C242.374 185.845 242.186 185.868 242 185.852V185.882ZM241.23 185.182H242C242.091 185.193 242.184 185.185 242.272 185.158C242.36 185.131 242.442 185.085 242.511 185.024C242.58 184.963 242.635 184.888 242.673 184.804C242.711 184.72 242.73 184.629 242.73 184.537C242.73 184.445 242.711 184.354 242.673 184.27C242.635 184.186 242.58 184.111 242.511 184.05C242.442 183.989 242.36 183.943 242.272 183.916C242.184 183.889 242.091 183.881 242 183.892H241.23V185.182Z" fill="#263238"/>
<path d="M244.2 187.242V183.512C244.191 183.462 244.194 183.41 244.207 183.361C244.221 183.312 244.245 183.266 244.277 183.227C244.31 183.188 244.351 183.157 244.397 183.136C244.444 183.114 244.494 183.103 244.545 183.103C244.596 183.103 244.646 183.114 244.692 183.136C244.739 183.157 244.78 183.188 244.812 183.227C244.845 183.266 244.869 183.312 244.883 183.361C244.896 183.41 244.899 183.462 244.89 183.512V186.862H246.59C246.683 186.862 246.772 186.899 246.837 186.964C246.903 187.03 246.94 187.119 246.94 187.212C246.937 187.303 246.899 187.39 246.834 187.453C246.769 187.517 246.681 187.552 246.59 187.552H244.54C244.455 187.552 244.373 187.521 244.31 187.463C244.247 187.406 244.207 187.327 244.2 187.242Z" fill="#263238"/>
<path d="M250.94 183.742C251.35 184.166 251.579 184.732 251.58 185.322C251.578 185.914 251.349 186.484 250.94 186.912C250.752 187.124 250.521 187.293 250.262 187.408C250.003 187.524 249.723 187.583 249.44 187.582C249.153 187.582 248.868 187.522 248.605 187.406C248.342 187.291 248.105 187.123 247.91 186.912C247.506 186.482 247.284 185.912 247.29 185.322C247.284 184.735 247.506 184.168 247.91 183.742C248.104 183.529 248.34 183.36 248.604 183.244C248.867 183.129 249.152 183.07 249.44 183.072C249.723 183.071 250.003 183.13 250.262 183.246C250.521 183.361 250.752 183.53 250.94 183.742ZM250.86 185.322C250.859 184.919 250.709 184.531 250.44 184.232C250.314 184.091 250.16 183.978 249.988 183.901C249.815 183.823 249.629 183.783 249.44 183.782C249.251 183.782 249.064 183.822 248.891 183.899C248.719 183.977 248.565 184.09 248.44 184.232C248.16 184.525 248.005 184.916 248.01 185.322C248.006 185.523 248.042 185.723 248.116 185.91C248.19 186.097 248.3 186.268 248.44 186.412C248.565 186.555 248.718 186.67 248.891 186.749C249.063 186.829 249.25 186.871 249.44 186.872C249.63 186.869 249.816 186.827 249.989 186.748C250.161 186.668 250.315 186.554 250.44 186.412C250.712 186.115 250.862 185.725 250.86 185.322Z" fill="#263238"/>
<path d="M254.8 186.512H253.28L252.97 187.322C252.944 187.386 252.9 187.441 252.843 187.48C252.786 187.52 252.719 187.541 252.65 187.542H252.53C252.487 187.526 252.447 187.502 252.413 187.471C252.378 187.44 252.351 187.403 252.331 187.361C252.312 187.319 252.301 187.274 252.299 187.227C252.297 187.181 252.304 187.135 252.32 187.092L253.7 183.402C253.727 183.335 253.774 183.277 253.835 183.238C253.896 183.198 253.968 183.179 254.04 183.182C254.111 183.18 254.181 183.199 254.24 183.239C254.3 183.278 254.345 183.335 254.37 183.402L255.76 187.092C255.789 187.18 255.784 187.275 255.745 187.359C255.706 187.443 255.636 187.508 255.55 187.542H255.43C255.36 187.544 255.292 187.524 255.234 187.484C255.177 187.445 255.133 187.388 255.11 187.322L254.8 186.512ZM254.55 185.822L254 184.512L253.49 185.862L254.55 185.822Z" fill="#263238"/>
<path d="M256.62 187.242V183.512C256.619 183.467 256.626 183.421 256.643 183.379C256.659 183.336 256.684 183.298 256.716 183.265C256.748 183.232 256.786 183.207 256.828 183.189C256.869 183.171 256.914 183.162 256.96 183.162H257.7C258.257 183.2 258.778 183.447 259.159 183.855C259.54 184.262 259.752 184.799 259.752 185.357C259.752 185.915 259.54 186.452 259.159 186.859C258.778 187.267 258.257 187.514 257.7 187.552H257C256.954 187.558 256.908 187.554 256.864 187.541C256.82 187.528 256.779 187.507 256.744 187.478C256.708 187.449 256.679 187.413 256.658 187.373C256.637 187.332 256.624 187.288 256.62 187.242ZM257.31 186.892H257.7C257.897 186.891 258.092 186.851 258.273 186.774C258.455 186.697 258.619 186.586 258.758 186.446C258.896 186.305 259.005 186.139 259.08 185.957C259.154 185.774 259.191 185.579 259.19 185.382C259.19 184.987 259.033 184.608 258.754 184.328C258.474 184.049 258.095 183.892 257.7 183.892H257.31V186.892Z" fill="#263238"/>
<path d="M261.2 186.692C261.293 186.69 261.385 186.716 261.464 186.766C261.542 186.817 261.604 186.889 261.641 186.975C261.678 187.061 261.689 187.156 261.672 187.247C261.655 187.339 261.611 187.424 261.546 187.491C261.481 187.557 261.397 187.603 261.305 187.622C261.214 187.641 261.119 187.632 261.033 187.597C260.946 187.562 260.872 187.502 260.82 187.424C260.768 187.347 260.74 187.255 260.74 187.162C260.74 187.039 260.788 186.921 260.874 186.833C260.96 186.745 261.077 186.695 261.2 186.692Z" fill="#263238"/>
<path d="M262.65 186.692C262.775 186.692 262.894 186.742 262.982 186.83C263.07 186.918 263.12 187.037 263.12 187.162C263.12 187.287 263.07 187.406 262.982 187.494C262.894 187.582 262.775 187.632 262.65 187.632C262.525 187.632 262.406 187.582 262.318 187.494C262.23 187.406 262.18 187.287 262.18 187.162C262.18 187.037 262.23 186.918 262.318 186.83C262.406 186.742 262.525 186.692 262.65 186.692Z" fill="#263238"/>
<path d="M264.09 186.692C264.215 186.692 264.334 186.742 264.422 186.83C264.51 186.918 264.56 187.037 264.56 187.162C264.56 187.287 264.51 187.406 264.422 187.494C264.334 187.582 264.215 187.632 264.09 187.632C263.965 187.632 263.846 187.582 263.758 187.494C263.67 187.406 263.62 187.287 263.62 187.162C263.62 187.037 263.67 186.918 263.758 186.83C263.846 186.742 263.965 186.692 264.09 186.692Z" fill="#263238"/>
<path d="M430.69 215.472H338.64V282.202H430.69V215.472Z" fill="#1577EA"/>
<path d="M371.17 208.562H338.64V215.472H373.03L371.17 208.562Z" fill="#1577EA"/>
<g opacity="0.2">
<path opacity="0.2" d="M430.69 215.472H338.64V282.202H430.69V215.472Z" fill="black"/>
<path opacity="0.2" d="M371.17 208.562H338.64V215.472H373.03L371.17 208.562Z" fill="black"/>
</g>
<path d="M368.44 210.652H341.84V214.672H368.44V210.652Z" fill="white"/>
<path d="M420.192 238.852L434.232 185.602L380.982 171.562L366.942 224.812L420.192 238.852Z" fill="#455A64"/>
<path d="M391.91 218.152C391.649 219.065 391.124 219.881 390.4 220.495C389.675 221.11 388.785 221.496 387.842 221.604C386.898 221.712 385.944 221.538 385.099 221.104C384.254 220.67 383.558 219.994 383.097 219.164C382.636 218.333 382.432 217.385 382.51 216.438C382.589 215.492 382.947 214.59 383.538 213.847C384.129 213.104 384.928 212.552 385.832 212.263C386.737 211.974 387.707 211.96 388.62 212.222C389.226 212.395 389.791 212.685 390.285 213.077C390.778 213.469 391.189 213.954 391.495 214.505C391.801 215.055 391.994 215.661 392.066 216.287C392.137 216.913 392.084 217.547 391.91 218.152Z" fill="white"/>
<path d="M398.879 192.748L395.365 191.76L388.858 214.896L392.372 215.884L398.879 192.748Z" fill="white"/>
<path d="M408.75 215.702C408.49 216.613 407.966 217.427 407.243 218.04C406.521 218.653 405.633 219.038 404.692 219.146C403.75 219.255 402.798 219.081 401.955 218.649C401.113 218.216 400.417 217.543 399.957 216.714C399.497 215.886 399.292 214.94 399.37 213.996C399.447 213.052 399.803 212.152 400.392 211.41C400.981 210.667 401.777 210.117 402.679 209.827C403.581 209.537 404.549 209.522 405.46 209.782C406.68 210.133 407.71 210.953 408.327 212.063C408.944 213.172 409.096 214.481 408.75 215.702Z" fill="white"/>
<path d="M415.409 192.454L411.889 191.449L405.271 214.622L408.79 215.628L415.409 192.454Z" fill="white"/>
<path d="M415.38 192.532L394.14 197.012L395.03 193.912L416.26 189.432L415.38 192.532Z" fill="white"/>
<path d="M413.71 198.372L392.48 202.852L393.36 199.752L414.59 195.272L413.71 198.372Z" fill="white"/>
<path d="M430.45 282.202H338.4L331.3 221.012H423.35L430.45 282.202Z" fill="#1577EA"/>
<path d="M363.09 214.672H330.56L331.3 221.012H365.69L363.09 214.672Z" fill="#1577EA"/>
<path d="M346.5 145.812L296.37 161.332L276.44 96.972L313.67 85.442L330.38 93.712L346.5 145.812Z" fill="#EBEBEB"/>
<path d="M313.67 85.442L330.38 93.712L317.46 97.702L313.67 85.442Z" fill="#DBDBDB"/>
<path d="M285.187 107.889L313.062 99.2602L312.55 97.6076L284.675 106.236L285.187 107.889Z" fill="#DBDBDB"/>
<path d="M286.481 112.057L314.356 103.428L313.845 101.776L285.97 110.404L286.481 112.057Z" fill="#DBDBDB"/>
<path d="M287.776 116.235L315.651 107.606L315.139 105.953L287.264 114.582L287.776 116.235Z" fill="#DBDBDB"/>
<path d="M289.056 120.4L329.903 107.756L329.392 106.103L288.544 118.748L289.056 120.4Z" fill="#DBDBDB"/>
<path d="M290.35 124.568L331.198 111.924L330.686 110.271L289.839 122.916L290.35 124.568Z" fill="#DBDBDB"/>
<path d="M291.645 128.746L332.493 116.102L331.981 114.449L291.133 127.094L291.645 128.746Z" fill="#DBDBDB"/>
<path d="M292.939 132.914L333.787 120.27L333.276 118.617L292.428 131.262L292.939 132.914Z" fill="#DBDBDB"/>
<path d="M294.234 137.092L335.082 124.448L334.57 122.795L293.722 135.44L294.234 137.092Z" fill="#DBDBDB"/>
<path d="M295.519 141.263L336.367 128.619L335.855 126.966L295.007 139.61L295.519 141.263Z" fill="#DBDBDB"/>
<path d="M296.804 145.431L337.651 132.787L337.14 131.134L296.292 143.778L296.804 145.431Z" fill="#DBDBDB"/>
<path d="M298.095 149.599L338.943 136.955L338.431 135.302L297.584 147.947L298.095 149.599Z" fill="#DBDBDB"/>
<path d="M299.39 153.767L340.238 141.123L339.726 139.47L298.878 152.115L299.39 153.767Z" fill="#DBDBDB"/>
<path d="M405.62 175.266L395.543 128.582L340.511 140.46L350.587 187.145L405.62 175.266Z" fill="#1577EA"/>
<path d="M371.47 168.902L402.76 162.152L382.95 146.252L371.47 168.902Z" fill="#1577EA"/>
<g opacity="0.3">
<path opacity="0.3" d="M371.47 168.902L402.76 162.152L382.95 146.252L371.47 168.902Z" fill="white"/>
</g>
<path d="M356.07 172.242L383.82 166.252L367.24 156.692L356.07 172.242Z" fill="#1577EA"/>
<g opacity="0.5">
<path opacity="0.5" d="M356.07 172.242L383.82 166.252L367.24 156.692L356.07 172.242Z" fill="white"/>
</g>
<path d="M402.763 162.117L347.73 173.995L350.561 187.113L405.594 175.235L402.763 162.117Z" fill="#1577EA"/>
<g opacity="0.5">
<path opacity="0.5" d="M402.763 162.117L347.73 173.995L350.561 187.113L405.594 175.235L402.763 162.117Z" fill="white"/>
</g>
<path opacity="0.9" d="M354.37 157.612C355.301 157.597 356.203 157.283 356.942 156.716C357.681 156.149 358.218 155.36 358.474 154.465C358.729 153.569 358.69 152.615 358.362 151.743C358.034 150.872 357.434 150.129 356.651 149.624C355.869 149.12 354.944 148.881 354.015 148.942C353.086 149.003 352.201 149.362 351.491 149.965C350.781 150.567 350.284 151.383 350.073 152.29C349.862 153.197 349.949 154.148 350.32 155.002C350.662 155.788 351.229 156.456 351.949 156.921C352.67 157.385 353.513 157.626 354.37 157.612Z" fill="white"/>
<path d="M156.69 325.852L159.48 342.612L178.41 456.562H181.46L167.69 342.612L165.66 325.852H156.69Z" fill="#DBDBDB"/>
<path d="M165.66 325.852H156.69L159.48 342.612H167.69L165.66 325.852Z" fill="#A6A6A6"/>
<path d="M97.27 456.562H100.32L119.24 342.612L122.03 325.852H113.06L111.03 342.612L97.27 456.562Z" fill="#DBDBDB"/>
<path d="M113.06 325.852L111.03 342.612H119.24L122.03 325.852H113.06Z" fill="#A6A6A6"/>
<path d="M40.51 456.562H43.56L62.48 342.612L65.28 325.852H56.3L54.27 342.612L40.51 456.562Z" fill="#DBDBDB"/>
<path d="M54.27 342.612H62.48L65.28 325.852H56.3L54.27 342.612Z" fill="#A6A6A6"/>
<path d="M45.35 333.722H184V319.112H132.1L114.65 217.622H50.63L45.35 333.722Z" fill="#DBDBDB"/>
<path d="M45.35 333.722H52.91L57.83 217.622H50.63L45.35 333.722Z" fill="#A6A6A6"/>
<path d="M183.69 458.222C181.18 458.462 112.89 442.122 110.74 439.902C110.48 439.662 111.83 433.452 113.81 424.992V424.822C115.08 419.512 135 376.072 135 376.072L179.28 388.512L159.13 428.712C159.13 428.712 167.45 434.712 174.59 440.452C179 443.962 182.8 447.112 183.59 448.142C185.71 450.832 186.19 458.012 183.69 458.222Z" fill="#D3766A"/>
<path d="M183.68 458.222C181.18 458.462 112.89 442.122 110.74 439.912C110.48 439.652 111.83 433.462 113.81 424.992V424.832C114.26 422.832 117.33 415.532 120.99 407.182C128.27 409.182 154.38 416.232 163.87 419.182L159.09 428.722C159.09 428.722 167.42 434.722 174.56 440.472C178.96 443.982 182.77 447.142 183.56 448.152C185.71 450.842 186.19 458.012 183.68 458.222Z" fill="white"/>
<path d="M183.91 458.512C181.33 458.732 112.99 442.202 110.79 439.932C109.95 439.072 111.47 428.282 115.22 416.862L159.22 427.572C159.22 427.572 181.71 445.402 183.86 448.162C186.01 450.922 186.49 458.332 183.91 458.512Z" fill="#1577EA"/>
<path d="M183.59 455.582C172.2 452.512 126 441.292 114.5 439.142C114.41 439.142 114.39 439.192 114.5 439.212C125.7 442.512 172 453.342 183.55 455.772C183.79 455.822 183.83 455.642 183.59 455.582Z" fill="#263238"/>
<path d="M180.1 444.682C178.834 444.34 177.511 444.265 176.215 444.461C174.919 444.657 173.678 445.121 172.57 445.822C170.582 447.071 169.15 449.037 168.57 451.312C168.57 451.382 168.68 451.412 168.71 451.312C169.645 449.137 171.261 447.324 173.315 446.146C175.369 444.969 177.75 444.49 180.1 444.782C180.11 444.792 180.122 444.798 180.136 444.801C180.149 444.803 180.163 444.802 180.176 444.797C180.189 444.791 180.2 444.782 180.207 444.771C180.215 444.759 180.219 444.746 180.219 444.732C180.219 444.718 180.215 444.705 180.207 444.693C180.2 444.682 180.189 444.673 180.176 444.667C180.163 444.662 180.149 444.661 180.136 444.663C180.122 444.666 180.11 444.672 180.1 444.682Z" fill="#263238"/>
<path d="M162.58 429.622C158.01 428.452 152.3 428.782 148.58 431.852C148.43 431.962 148.58 432.172 148.76 432.132C153.275 431.003 157.898 430.359 162.55 430.212C162.62 430.203 162.685 430.17 162.732 430.118C162.78 430.067 162.809 430 162.812 429.93C162.816 429.859 162.795 429.79 162.752 429.734C162.71 429.677 162.649 429.638 162.58 429.622Z" fill="#263238"/>
<path d="M165.79 431.862C161.22 430.692 155.51 431.022 151.79 434.082C151.65 434.202 151.79 434.402 151.97 434.372C156.487 433.235 161.114 432.588 165.77 432.442C165.835 432.427 165.893 432.392 165.935 432.341C165.977 432.29 166.001 432.226 166.004 432.16C166.006 432.093 165.986 432.028 165.948 431.974C165.909 431.921 165.854 431.881 165.79 431.862Z" fill="#263238"/>
<path d="M169 434.102C164.43 432.922 158.72 433.262 155 436.322C154.85 436.442 155 436.642 155.18 436.602C159.695 435.473 164.318 434.829 168.97 434.682C169.047 434.686 169.122 434.659 169.179 434.608C169.237 434.556 169.271 434.484 169.275 434.407C169.279 434.33 169.252 434.255 169.201 434.198C169.149 434.14 169.077 434.106 169 434.102Z" fill="#263238"/>
<path d="M172.2 436.332C167.63 435.162 161.92 435.492 158.2 438.552C158.06 438.672 158.2 438.882 158.38 438.842C162.898 437.708 167.524 437.064 172.18 436.922C172.25 436.912 172.313 436.877 172.36 436.825C172.407 436.773 172.434 436.706 172.436 436.635C172.439 436.565 172.416 436.496 172.373 436.441C172.33 436.385 172.269 436.347 172.2 436.332Z" fill="#263238"/>
<path d="M120.05 428.972C114.9 427.742 112.98 435.742 118.14 436.972C123.3 438.202 125.21 430.202 120.05 428.972Z" fill="#263238"/>
<path d="M170.49 418.592C168.64 416.102 165.26 417.282 163.35 418.932C160.119 421.832 157.706 425.528 156.35 429.652C156.35 429.742 156.35 429.802 156.47 429.812C156.466 429.902 156.484 429.992 156.522 430.075C156.56 430.157 156.617 430.229 156.689 430.284C156.76 430.34 156.844 430.378 156.933 430.395C157.022 430.412 157.113 430.407 157.2 430.382C161.01 428.912 165.27 427.812 168.51 425.222C170.4 423.712 172.25 420.942 170.49 418.592ZM162.49 426.972C160.64 427.742 158.75 428.412 156.92 429.252C158.3 427.162 159.57 425.032 161.15 423.082C161.898 422.134 162.706 421.236 163.57 420.392C164.94 419.122 170.36 416.392 169.57 421.472C169.22 424.282 164.72 426.062 162.51 426.972H162.49Z" fill="#263238"/>
<path d="M144.54 428.592C148.39 430.172 152.78 430.032 156.85 430.372C156.94 430.372 157.029 430.35 157.109 430.309C157.19 430.268 157.259 430.208 157.312 430.135C157.364 430.062 157.399 429.977 157.413 429.888C157.426 429.799 157.418 429.708 157.39 429.622C157.46 429.622 157.51 429.512 157.45 429.432C154.997 425.85 151.645 422.977 147.73 421.102C145.43 420.102 141.85 419.882 140.73 422.782C139.61 425.682 142.3 427.672 144.54 428.592ZM142.41 425.312C140.25 420.632 146.23 421.742 147.9 422.582C148.976 423.155 150.011 423.8 151 424.512C153.06 425.932 154.88 427.632 156.79 429.242C154.79 428.952 152.79 428.842 150.79 428.622C148.4 428.332 143.59 427.892 142.41 425.312Z" fill="#263238"/>
<path d="M164.14 425.032L116.72 410.812C116.72 410.812 155.81 329.362 154.57 325.222C153.75 322.452 95.15 322.222 77.98 306.842C60.2 290.872 74 259.512 74 259.512L123.27 259.262C123.27 259.262 122.42 269.542 124.27 271.142C125.51 272.212 192.87 278.142 205.77 302.902C217.55 325.392 164.14 425.032 164.14 425.032Z" fill="#263238"/>
<path d="M154.58 325.212C154.79 325.912 153.84 328.842 152.1 333.212L187.51 376.712C200.14 347.932 212.01 314.712 205.85 302.902C192.94 278.142 125.59 272.212 124.34 271.142C122.47 269.542 123.34 259.262 123.34 259.262L92 259.432L144 323.272C150.27 323.952 154.36 324.512 154.58 325.212Z" fill="#263238"/>
<path d="M165.32 415.002C164.065 414.434 162.772 413.952 161.45 413.562C160.08 413.102 158.72 412.632 157.34 412.182C154.64 411.312 151.92 410.482 149.18 409.712C143.68 408.152 138.18 406.622 132.62 405.212C129.72 404.482 123.53 402.882 123.15 402.942C122.96 402.942 122.92 403.272 123.08 403.332C128.44 405.252 133.89 406.892 139.33 408.552C144.77 410.212 150.2 411.852 155.71 413.242C157.24 413.622 158.77 413.962 160.3 414.332C161.9 414.786 163.531 415.12 165.18 415.332C165.33 415.392 165.49 415.092 165.32 415.002Z" fill="#455A64"/>
<path d="M76.69 268.912C76.84 267.262 77.02 265.622 77.21 263.982C77.21 263.792 77.53 263.792 77.51 263.982C76.85 270.652 76.18 277.472 77.41 284.112C78.5272 290.243 81.6174 295.84 86.21 300.052C95.98 309.172 109.65 311.852 122.38 314.052C129.68 315.292 137.01 316.242 144.38 316.972C147.98 317.322 151.6 317.612 155.21 317.832C158.82 318.052 162.39 318.092 165.97 318.292C167.1 318.352 168.12 318.872 167.97 320.172C167.782 320.959 167.493 321.719 167.11 322.432C166.73 323.302 166.34 324.172 165.95 325.042C164.523 328.295 163.08 331.545 161.62 334.792C158.62 341.459 155.577 348.125 152.49 354.792C146.37 368.005 140.017 381.105 133.43 394.092C132.617 395.705 131.8 397.315 130.98 398.922C130.98 399.022 130.77 398.922 130.82 398.822C137.113 385.669 143.323 372.479 149.45 359.252C152.49 352.692 155.52 346.122 158.54 339.542C160.04 336.255 161.533 332.962 163.02 329.662L165.24 324.712L166.35 322.242C166.65 321.552 167.77 319.902 167 319.242C166.49 318.812 165.42 318.962 164.8 318.942L161.94 318.852C160.13 318.792 158.32 318.722 156.51 318.632C152.85 318.445 149.183 318.192 145.51 317.872C138.35 317.252 131.217 316.362 124.11 315.202C111.46 313.202 97.7 310.872 87.57 302.382C83.0373 298.689 79.663 293.77 77.85 288.212C75.91 281.982 76.1 275.332 76.69 268.912Z" fill="#455A64"/>
<path d="M287.87 395.792C286.09 397.582 223.07 428.542 220 428.202C219.64 428.202 216.72 422.542 212.85 414.762L212.77 414.602C210.3 409.682 187.88 368.282 187.88 368.282L227.09 348.432L250.09 388.722C250.09 388.722 260.35 388.052 269.49 387.912C275.12 387.812 280.06 387.812 281.33 388.092C284.71 388.812 289.66 394.032 287.87 395.792Z" fill="#D3766A"/>
<path d="M287.87 395.792C286.09 397.572 223.07 428.542 219.99 428.202C219.64 428.202 216.72 422.542 212.85 414.762L212.77 414.612L212.24 413.612C212.12 413.365 211.99 413.115 211.85 412.862L211.26 411.752C209.55 408.522 206.75 403.282 203.66 397.542L243.66 377.392L250.15 388.762C250.15 388.762 260.41 388.102 269.55 387.942C275.18 387.842 280.13 387.842 281.39 388.122C284.71 388.812 289.66 394.032 287.87 395.792Z" fill="white"/>
<path d="M288.25 395.902C286.4 397.722 223.25 428.572 220.07 428.222C218.88 428.102 213.17 418.822 208.78 407.622L249.53 387.782C249.53 387.782 278.22 387.182 281.64 387.932C285.06 388.682 290.09 394.092 288.25 395.902Z" fill="#1577EA"/>
<path d="M286.11 393.822C275.39 398.732 232.63 419.552 222.41 425.222C222.33 425.222 222.35 425.322 222.41 425.282C233.14 420.652 275.73 399.482 286.16 393.992C286.41 393.872 286.33 393.712 286.11 393.822Z" fill="#263238"/>
<path d="M276.47 387.652C275.275 388.193 274.206 388.978 273.331 389.956C272.456 390.934 271.795 392.084 271.39 393.332C270.644 395.569 270.787 398.008 271.79 400.142C271.79 400.202 271.94 400.142 271.91 400.072C271.257 397.799 271.353 395.376 272.185 393.162C273.018 390.948 274.541 389.062 276.53 387.782C276.61 387.732 276.55 387.612 276.47 387.652Z" fill="#263238"/>
<path d="M253.37 387.222C249.11 389.222 244.92 393.132 243.98 397.882C243.98 398.072 244.21 398.122 244.3 397.992C247.056 394.239 250.207 390.792 253.7 387.712C253.751 387.663 253.782 387.598 253.79 387.528C253.797 387.458 253.78 387.387 253.74 387.329C253.701 387.27 253.642 387.228 253.575 387.208C253.507 387.189 253.434 387.193 253.37 387.222Z" fill="#263238"/>
<path d="M257.27 386.902C253 388.902 248.82 392.812 247.88 397.562C247.88 397.752 248.1 397.792 248.2 397.672C250.953 393.916 254.105 390.469 257.6 387.392C257.651 387.343 257.682 387.278 257.69 387.208C257.697 387.138 257.68 387.067 257.64 387.009C257.601 386.95 257.542 386.908 257.475 386.888C257.407 386.868 257.334 386.873 257.27 386.902Z" fill="#263238"/>
<path d="M261.16 386.582C256.9 388.582 252.71 392.492 251.77 397.242C251.77 397.422 252 397.472 252.09 397.352C254.846 393.598 257.997 390.152 261.49 387.072C261.541 387.023 261.573 386.958 261.58 386.888C261.587 386.818 261.57 386.747 261.53 386.689C261.491 386.63 261.432 386.588 261.365 386.568C261.297 386.548 261.224 386.553 261.16 386.582Z" fill="#263238"/>
<path d="M265.06 386.262C260.79 388.262 256.61 392.162 255.67 396.922C255.67 397.102 255.89 397.152 255.99 397.022C258.748 393.27 261.9 389.824 265.39 386.742C265.454 386.698 265.497 386.631 265.511 386.555C265.525 386.479 265.509 386.401 265.465 386.337C265.421 386.273 265.354 386.23 265.278 386.216C265.202 386.201 265.124 386.218 265.06 386.262Z" fill="#263238"/>
<path d="M220.2 413.842C215.45 416.182 219.07 423.562 223.83 421.222C228.59 418.882 225 411.512 220.2 413.842Z" fill="#263238"/>
<path d="M252.43 373.682C249.43 372.952 247.56 376.002 247.14 378.502C246.501 382.795 246.997 387.181 248.58 391.222C248.587 391.24 248.598 391.256 248.612 391.269C248.626 391.282 248.643 391.291 248.662 391.296C248.681 391.301 248.7 391.302 248.719 391.297C248.738 391.293 248.755 391.284 248.77 391.272C248.824 391.344 248.894 391.403 248.975 391.444C249.056 391.484 249.145 391.505 249.235 391.505C249.325 391.505 249.414 391.484 249.495 391.444C249.576 391.403 249.646 391.344 249.7 391.272C251.7 387.712 254.28 384.152 255.13 380.092C255.62 377.682 255.28 374.372 252.43 373.682ZM251.63 385.232C250.69 387.002 249.63 388.722 248.79 390.532C248.52 388.052 248.14 385.592 248.11 383.082C248.078 381.876 248.132 380.67 248.27 379.472C248.5 377.622 250.93 372.042 253.61 376.472C255.08 378.882 252.75 383.112 251.63 385.232Z" fill="#263238"/>
<path d="M238.82 397.932C242.82 396.702 246.08 393.792 249.43 391.452C249.499 391.394 249.554 391.321 249.589 391.239C249.625 391.156 249.64 391.066 249.634 390.977C249.628 390.887 249.601 390.8 249.555 390.723C249.51 390.645 249.446 390.58 249.37 390.532C249.37 390.452 249.37 390.372 249.3 390.342C245.125 389.153 240.712 389.081 236.5 390.132C234.06 390.792 231.19 392.932 232.21 395.862C233.17 398.632 236.5 398.652 238.82 397.932ZM235.08 396.772C230.44 394.532 235.75 391.582 237.57 391.162C238.75 390.911 239.946 390.744 241.15 390.662C243.642 390.532 246.138 390.532 248.63 390.662C246.91 391.662 245.3 392.882 243.63 393.992C241.63 395.272 237.64 398.002 235.08 396.772Z" fill="#263238"/>
<path d="M249.94 382.202L202.66 405.832C202.66 405.832 165.76 330.832 161.71 325.972C156.31 319.512 86 328.622 69.44 307.812C52.29 286.292 67 259.562 67 259.562H120.5C120.5 259.562 120.66 265.502 117.58 274.182C117.58 274.182 178.76 270.542 196.08 287.372C209.36 300.242 249.94 382.202 249.94 382.202Z" fill="#263238"/>
<path d="M107.81 279.512C110.553 277.625 113.397 275.889 116.33 274.312C118.385 273.231 120.542 272.357 122.77 271.702C124.33 271.322 125.02 271.212 123.55 271.902L119.62 273.772H120.45L123.6 273.652C125.66 273.602 127.72 273.652 129.78 273.602C133.95 273.602 138.09 273.972 142.25 274.182C142.36 274.182 142.36 274.362 142.25 274.352C138.09 274.222 133.92 274.442 129.76 274.422C127.7 274.422 125.64 274.422 123.58 274.512L120.58 274.562C119.727 274.607 118.873 274.607 118.02 274.562L116.87 275.102C113.87 276.532 110.87 278.012 107.87 279.662C107.82 279.712 107.73 279.602 107.81 279.512Z" fill="#455A64"/>
<path d="M121.76 257.512C121.21 260.042 120.76 262.582 120.11 265.092C119.82 266.232 119.54 267.402 119.11 268.522C118.77 269.522 118.26 270.522 117.19 270.792C115.95 271.082 115.56 270.022 115.63 268.992C115.743 267.837 115.917 266.689 116.15 265.552C116.36 264.242 116.58 262.932 116.78 261.622C116.87 260.962 116.97 260.312 117.06 259.622C117.06 259.462 117.16 258.202 117.24 257.842C117.24 257.842 117.24 257.902 117.31 257.892C117.328 257.891 117.345 257.885 117.359 257.874C117.373 257.863 117.384 257.849 117.39 257.832C117.39 257.732 117.39 257.712 117.32 257.642C117.304 257.63 117.285 257.623 117.265 257.623C117.245 257.623 117.226 257.63 117.21 257.642C116.97 257.782 116.97 258.102 116.9 258.342C116.72 258.982 116.53 259.622 116.37 260.272C116.057 261.479 115.767 262.689 115.5 263.902C115.24 265.122 114.98 266.332 114.73 267.552C114.441 268.454 114.389 269.414 114.58 270.342C114.704 270.779 114.966 271.165 115.326 271.442C115.686 271.719 116.126 271.874 116.58 271.882L116.45 272.122C116.35 272.372 116.28 272.642 116.2 272.902C116.108 273.161 116.031 273.424 115.97 273.692C115.94 273.82 115.919 273.951 115.91 274.082C115.91 274.222 115.91 274.362 115.91 274.512C115.91 274.662 116.2 274.862 116.3 274.642C116.365 274.517 116.439 274.397 116.52 274.282C116.593 274.146 116.65 274.001 116.69 273.852C116.76 273.602 116.83 273.352 116.88 273.092C116.93 272.832 117.01 272.582 117.05 272.322C117.09 272.062 117.05 272.012 117.05 271.862C117.568 271.792 118.058 271.585 118.47 271.262C119.16 270.636 119.653 269.823 119.89 268.922C120.23 267.872 120.49 266.782 120.75 265.702C121.424 263.038 121.865 260.322 122.07 257.582C122.23 257.322 121.82 257.222 121.76 257.512Z" fill="#455A64"/>
<path d="M96 264.712C95.81 265.962 95.71 267.222 95.47 268.462C95.23 269.702 94.94 270.892 94.58 272.082C94.2633 273.237 93.7852 274.341 93.16 275.362C92.5094 276.322 91.7209 277.181 90.82 277.912C89.0803 279.378 87.1149 280.553 85 281.392C83.9421 281.81 82.8602 282.164 81.76 282.452C81.19 282.602 80.61 282.722 80.03 282.822C79.5437 282.853 79.068 282.978 78.63 283.192C78.5887 283.218 78.5547 283.254 78.5311 283.297C78.5075 283.34 78.4952 283.388 78.4952 283.437C78.4952 283.486 78.5075 283.534 78.5311 283.577C78.5547 283.62 78.5887 283.656 78.63 283.682C79.4855 283.907 80.3846 283.907 81.24 283.682C82.1726 283.554 83.0949 283.36 84 283.102C85.8306 282.553 87.5745 281.748 89.18 280.712C90.8023 279.717 92.243 278.452 93.44 276.972C94.5582 275.423 95.3042 273.636 95.62 271.752C96.1191 269.454 96.2974 267.099 96.15 264.752C96.1338 264.729 96.1098 264.712 96.0824 264.704C96.0549 264.697 96.0257 264.7 96 264.712Z" fill="#455A64"/>
<path d="M240.34 373.602C239.037 374.047 237.767 374.585 236.54 375.212C235.23 375.812 233.91 376.412 232.61 377.032C230.05 378.262 227.5 379.522 224.98 380.832C219.91 383.482 214.85 386.162 209.85 388.942C207.24 390.392 201.64 393.482 201.4 393.782C201.16 394.082 201.47 394.182 201.63 394.112C206.84 391.832 211.92 389.292 217.02 386.762C222.12 384.232 227.19 381.692 232.15 378.922C233.52 378.152 234.87 377.342 236.24 376.562C237.72 375.801 239.143 374.935 240.5 373.972C240.62 373.872 240.53 373.512 240.34 373.602Z" fill="#455A64"/>
<path d="M67 272.002C67 271.954 67.019 271.908 67.0527 271.875C67.0865 271.841 67.1323 271.822 67.18 271.822C67.2277 271.822 67.2735 271.841 67.3073 271.875C67.341 271.908 67.36 271.954 67.36 272.002C67.26 283.622 69.05 296.612 77.99 304.942C87.8 314.082 101.94 315.172 114.67 315.062C121.98 315.002 129.28 314.812 136.58 315.062C143.88 315.312 151.34 315.652 158.63 316.582C161.47 316.849 164.121 318.118 166.11 320.162C168.04 322.343 169.717 324.735 171.11 327.292C174.79 333.385 178.35 339.542 181.79 345.762C188.643 358.135 194.977 370.769 200.79 383.662C201.51 385.262 202.227 386.865 202.94 388.472C202.94 388.572 202.83 388.662 202.78 388.552C196.86 375.619 190.49 362.909 183.67 350.422C180.283 344.175 176.77 337.992 173.13 331.872C171.43 328.992 169.78 326.052 167.87 323.302C166.19 320.872 164.09 318.582 161.18 317.702C159.398 317.254 157.575 316.99 155.74 316.912C153.87 316.742 152 316.582 150.13 316.452C146.49 316.185 142.843 315.985 139.19 315.852C131.83 315.582 124.47 315.672 117.1 315.852C104.31 316.082 90.34 315.642 79.73 307.502C75.2004 303.95 71.7824 299.175 69.88 293.742C67.9808 288.154 67.0079 282.294 67 276.392C67 274.932 67 273.512 67 272.002Z" fill="#455A64"/>
<path d="M143.6 322.892C146.21 322.892 148.82 323.042 151.42 323.132C153.594 323.094 155.767 323.288 157.9 323.712C159.9 324.202 161.44 324.442 163.06 326.652C165.06 329.412 176.06 350.652 180.67 360.022C181.95 362.632 183.22 365.242 184.46 367.862C185.7 370.482 186.87 373.352 188.14 376.062C188.143 376.08 188.14 376.099 188.132 376.116C188.123 376.133 188.11 376.146 188.093 376.155C188.077 376.164 188.058 376.168 188.04 376.165C188.021 376.163 188.004 376.155 187.99 376.142C186.86 373.882 185.61 371.672 184.44 369.422C183.27 367.172 182.14 364.902 181 362.632C178.72 358.052 176.43 353.475 174.13 348.902C171.84 344.362 169.07 339.902 166.75 335.432C164.81 331.632 162.15 326.432 160.3 325.682C157.71 324.651 154.992 323.978 152.22 323.682C149.34 323.482 146.47 323.302 143.59 323.052C143.574 323.062 143.556 323.068 143.538 323.068C143.519 323.069 143.501 323.064 143.485 323.055C143.469 323.045 143.456 323.032 143.447 323.015C143.438 322.999 143.434 322.981 143.435 322.962C143.437 322.943 143.443 322.926 143.454 322.911C143.464 322.895 143.479 322.883 143.496 322.876C143.513 322.869 143.532 322.867 143.55 322.869C143.569 322.872 143.586 322.88 143.6 322.892Z" fill="#455A64"/>
<path d="M100 156.762C90.35 165.032 93 177.102 89 183.642C86.54 187.642 78.51 191.872 76.92 196.482C74.29 204.062 80.72 206.782 79.28 210.902C77.28 216.732 69.43 216.282 68.03 225.822C66.63 235.362 77.12 245.522 102.03 248.272C126.94 251.022 140.65 241.902 141.54 233.802C142.43 225.702 134.14 223.002 133.54 216.962C133.18 213.092 138.3 210.402 138.54 203.292C138.78 196.182 131.86 193.862 130.87 187.822C129.88 181.782 133.08 167.102 124.2 159.612C115.32 152.122 104.71 152.672 100 156.762Z" fill="#263238"/>
<path d="M101.07 156.972C98.3723 158.886 96.174 161.421 94.66 164.362C93.0983 167.48 91.9037 170.769 91.1 174.162C90.6822 176.187 90.0312 178.157 89.16 180.032C88.2989 181.595 87.1682 182.993 85.82 184.162C83.12 186.602 79.9 188.452 77.48 191.162C75.06 193.872 73.4 197.232 74.32 200.772C74.82 202.692 76.08 204.262 76.87 206.052C77.66 207.842 77.87 209.872 76.46 211.282C75.21 212.492 73.46 213.042 71.99 214.032C70.595 215.006 69.3659 216.197 68.35 217.562C67.3223 218.911 66.5878 220.46 66.1934 222.11C65.7991 223.76 65.7536 225.474 66.06 227.142C67.53 234.902 74.8 239.312 81.52 242.142C82.45 242.522 83.39 242.902 84.34 243.272C84.48 243.332 84.61 243.122 84.46 243.062C77.72 240.062 69.89 236.502 67.31 228.962C66.7204 227.318 66.5183 225.561 66.7195 223.826C66.9207 222.092 67.5198 220.427 68.47 218.962C69.4104 217.503 70.6062 216.226 72 215.192C73.35 214.192 74.92 213.582 76.3 212.622C76.9911 212.19 77.5545 211.581 77.9324 210.859C78.3103 210.136 78.4889 209.326 78.45 208.512C78.2353 206.721 77.5978 205.008 76.59 203.512C75.557 201.989 75.0032 200.192 75 198.352C75.1939 196.533 75.886 194.803 77 193.352C79.09 190.352 82.2 188.432 85 186.182C87.8593 184.097 89.9843 181.16 91.07 177.792C91.59 176.012 91.91 174.182 92.35 172.392C92.7553 170.741 93.2459 169.112 93.82 167.512C94.9222 164.269 96.721 161.306 99.09 158.832C99.7159 158.198 100.406 157.632 101.15 157.142C101.23 157.052 101.15 156.922 101.07 156.972Z" fill="#263238"/>
<path d="M142.62 227.862C142.315 226.54 141.724 225.302 140.89 224.232C140.03 223.132 138.98 222.232 138.02 221.232C137.054 220.319 136.362 219.156 136.02 217.872C135.843 216.289 136.233 214.695 137.12 213.372C137.964 211.979 138.709 210.529 139.35 209.032C140.194 206.751 140.492 204.304 140.221 201.887C139.95 199.47 139.118 197.15 137.79 195.112C136.94 193.722 135.98 192.402 135.12 191.012C134.175 189.502 133.432 187.875 132.91 186.172C131.79 182.422 131.55 178.462 130.63 174.662C129.684 170.766 128.343 166.977 126.63 163.352C126.63 163.262 126.46 163.352 126.5 163.432C128.02 166.693 129.194 170.105 130 173.612C130.79 176.942 131.1 180.342 131.69 183.712C131.945 185.37 132.367 186.999 132.95 188.572C133.548 190.019 134.27 191.411 135.11 192.732C136.8 195.482 138.54 198.192 139 201.452C139.471 204.653 138.91 207.921 137.4 210.782C136.09 213.262 134.25 215.992 135.4 218.892C136.4 221.352 138.71 222.822 140.26 224.892C141.082 226.011 141.658 227.293 141.95 228.651C142.241 230.009 142.241 231.414 141.95 232.772C140.61 239.772 133.61 243.212 127.07 243.562C127.028 243.562 126.987 243.579 126.957 243.609C126.927 243.639 126.91 243.68 126.91 243.722C126.91 243.764 126.927 243.805 126.957 243.835C126.987 243.865 127.028 243.882 127.07 243.882C132.77 243.812 138.96 241.312 141.63 235.982C142.901 233.475 143.251 230.601 142.62 227.862Z" fill="#263238"/>
<path d="M104.19 207.172C106.57 216.962 122.19 251.172 127.69 254.882C134.1 259.172 168.05 276.332 174.46 274.262C176.67 273.542 186.16 249.852 181.9 248.012C168.9 242.372 144.38 238.122 140.9 235.102C138.61 233.102 124.76 216.922 112.06 203.322C107.28 198.182 102.66 200.852 104.19 207.172Z" fill="#D3766A"/>
<path d="M102.38 206.572C103.58 212.922 109.09 224.972 109.09 224.972L132.93 220.972C132.93 220.972 119.2 205.142 109.16 199.592C105.13 197.392 101.17 200.142 102.38 206.572Z" fill="#1577EA"/>
<path d="M102.38 206.572C103.58 212.922 109.09 224.972 109.09 224.972L132.93 220.972C132.93 220.972 119.2 205.142 109.16 199.592C105.13 197.392 101.17 200.142 102.38 206.572Z" fill="#1577EA"/>
<path d="M109.82 212.512C109.82 212.874 109.713 213.228 109.512 213.529C109.311 213.83 109.025 214.064 108.69 214.203C108.356 214.341 107.988 214.377 107.633 214.307C107.278 214.236 106.952 214.062 106.696 213.806C106.44 213.55 106.266 213.224 106.195 212.869C106.125 212.514 106.161 212.146 106.299 211.812C106.438 211.477 106.672 211.191 106.973 210.99C107.274 210.789 107.628 210.682 107.99 210.682C108.231 210.681 108.469 210.727 108.692 210.819C108.915 210.91 109.117 211.045 109.287 211.215C109.457 211.385 109.592 211.587 109.683 211.81C109.775 212.033 109.821 212.271 109.82 212.512Z" fill="white"/>
<path d="M108.72 221.722C112.22 220.902 115.72 220.132 119.27 219.512C121.03 219.199 122.8 218.919 124.58 218.672C126.36 218.422 128.16 218.352 129.93 218.072C130.03 218.072 130.04 218.212 129.93 218.222C128.15 218.402 126.38 218.832 124.61 219.112L119.3 219.992C115.77 220.592 112.23 221.192 108.71 221.872C108.63 221.892 108.62 221.742 108.72 221.722Z" fill="#263238"/>
<path opacity="0.1" d="M127.62 221.892L109.08 224.972C109.08 224.972 103.58 212.922 102.39 206.562C101.78 203.292 102.5 200.972 103.9 199.772L127.62 221.892Z" fill="black"/>
<path d="M122.65 268.702L57.83 270.832C57.83 270.832 77.5 214.382 91.75 200.902C98.24 194.772 104.13 196.122 108.91 200.622C110.11 201.742 124.49 222.492 125.39 229.472C126.19 235.632 120.82 242.102 120.82 242.102L122.65 268.702Z" fill="#1577EA"/>
<path d="M75.9 229.772C75.9 230.257 75.7072 230.723 75.364 231.066C75.0208 231.409 74.5553 231.602 74.07 231.602C73.8999 231.605 73.7305 231.578 73.57 231.522C74.07 230.422 74.57 229.332 75.08 228.252C75.3338 228.416 75.5421 228.641 75.6854 228.907C75.8288 229.172 75.9026 229.47 75.9 229.772ZM96.68 227.942C96.3181 227.942 95.9642 228.049 95.6633 228.25C95.3624 228.451 95.1278 228.737 94.9893 229.072C94.8508 229.406 94.8145 229.774 94.8852 230.129C94.9558 230.484 95.1301 230.81 95.386 231.066C95.6419 231.322 95.968 231.496 96.323 231.567C96.678 231.637 97.0459 231.601 97.3803 231.463C97.7147 231.324 98.0005 231.09 98.2016 230.789C98.4027 230.488 98.51 230.134 98.51 229.772C98.51 229.287 98.3172 228.821 97.974 228.478C97.6308 228.135 97.1653 227.942 96.68 227.942ZM119.3 227.942C118.938 227.94 118.583 228.046 118.281 228.246C117.978 228.445 117.742 228.731 117.602 229.065C117.462 229.399 117.424 229.767 117.494 230.123C117.563 230.478 117.737 230.805 117.992 231.062C118.248 231.319 118.574 231.495 118.929 231.566C119.285 231.637 119.653 231.602 119.988 231.464C120.323 231.325 120.609 231.091 120.811 230.79C121.012 230.489 121.12 230.134 121.12 229.772C121.12 229.288 120.929 228.824 120.588 228.481C120.247 228.139 119.784 227.945 119.3 227.942ZM85.38 210.652C85.0193 210.652 84.6667 210.759 84.3665 210.958C84.0662 211.158 83.8317 211.442 83.6924 211.775C83.553 212.108 83.5151 212.474 83.5833 212.828C83.6515 213.182 83.8228 213.508 84.0758 213.765C84.3287 214.023 84.652 214.199 85.0049 214.273C85.3579 214.347 85.7249 214.315 86.0598 214.181C86.3946 214.047 86.6825 213.817 86.8871 213.52C87.0918 213.223 87.2041 212.873 87.21 212.512C87.214 212.269 87.1696 212.028 87.0794 211.802C86.9892 211.577 86.8551 211.372 86.6847 211.199C86.5144 211.025 86.3113 210.888 86.0873 210.794C85.8633 210.7 85.6229 210.652 85.38 210.652ZM107.99 210.652C107.628 210.652 107.274 210.759 106.973 210.96C106.672 211.161 106.438 211.447 106.299 211.782C106.161 212.116 106.125 212.484 106.195 212.839C106.266 213.194 106.44 213.52 106.696 213.776C106.952 214.032 107.278 214.206 107.633 214.277C107.988 214.347 108.356 214.311 108.69 214.173C109.025 214.034 109.31 213.8 109.512 213.499C109.713 213.198 109.82 212.844 109.82 212.482C109.82 211.998 109.629 211.534 109.288 211.191C108.947 210.849 108.484 210.655 108 210.652H107.99ZM74.07 263.302C73.7081 263.302 73.3542 263.409 73.0533 263.61C72.7524 263.811 72.5178 264.097 72.3793 264.432C72.2408 264.766 72.2045 265.134 72.2752 265.489C72.3458 265.844 72.5201 266.17 72.776 266.426C73.0319 266.682 73.358 266.856 73.713 266.927C74.068 266.997 74.4359 266.961 74.7703 266.823C75.1047 266.684 75.3905 266.45 75.5916 266.149C75.7927 265.848 75.9 265.494 75.9 265.132C75.9 264.647 75.7072 264.181 75.364 263.838C75.0208 263.495 74.5553 263.302 74.07 263.302ZM96.68 263.302C96.3181 263.302 95.9642 263.409 95.6633 263.61C95.3624 263.811 95.1278 264.097 94.9893 264.432C94.8508 264.766 94.8145 265.134 94.8852 265.489C94.9558 265.844 95.1301 266.17 95.386 266.426C95.6419 266.682 95.968 266.856 96.323 266.927C96.678 266.997 97.0459 266.961 97.3803 266.823C97.7147 266.684 98.0005 266.45 98.2016 266.149C98.4027 265.848 98.51 265.494 98.51 265.132C98.51 264.647 98.3172 264.181 97.974 263.838C97.6308 263.495 97.1653 263.302 96.68 263.302ZM119.3 263.302C118.938 263.3 118.583 263.406 118.281 263.606C117.978 263.805 117.742 264.09 117.602 264.425C117.462 264.759 117.424 265.127 117.494 265.483C117.563 265.838 117.737 266.165 117.992 266.422C118.248 266.679 118.574 266.855 118.929 266.926C119.285 266.997 119.653 266.962 119.988 266.824C120.323 266.685 120.609 266.451 120.811 266.15C121.012 265.849 121.12 265.494 121.12 265.132C121.12 264.648 120.929 264.184 120.588 263.842C120.247 263.499 119.784 263.305 119.3 263.302ZM85.38 246.012C85.018 246.012 84.6642 246.119 84.3633 246.32C84.0624 246.521 83.8278 246.807 83.6893 247.142C83.5508 247.476 83.5145 247.844 83.5852 248.199C83.6558 248.554 83.8301 248.88 84.086 249.136C84.3419 249.392 84.668 249.566 85.023 249.637C85.378 249.707 85.7459 249.671 86.0803 249.533C86.4147 249.394 86.7005 249.16 86.9016 248.859C87.1027 248.558 87.21 248.204 87.21 247.842C87.21 247.357 87.0172 246.891 86.674 246.548C86.3308 246.205 85.8653 246.012 85.38 246.012ZM107.99 246.012C107.628 246.012 107.274 246.119 106.973 246.32C106.672 246.521 106.438 246.807 106.299 247.142C106.161 247.476 106.125 247.844 106.195 248.199C106.266 248.554 106.44 248.88 106.696 249.136C106.952 249.392 107.278 249.566 107.633 249.637C107.988 249.707 108.356 249.671 108.69 249.533C109.025 249.394 109.31 249.16 109.512 248.859C109.713 248.558 109.82 248.204 109.82 247.842C109.82 247.358 109.629 246.894 109.288 246.551C108.947 246.209 108.484 246.015 108 246.012H107.99Z" fill="white"/>
<path d="M116.83 242.032C115.525 241.847 114.204 241.807 112.89 241.912C112.27 241.954 111.652 242.031 111.04 242.142C110.35 242.282 109.68 242.472 109.04 242.622C108.92 242.622 108.98 242.812 109.04 242.792C109.721 242.668 110.409 242.585 111.1 242.542C111.72 242.492 112.34 242.412 112.97 242.362C114.25 242.272 115.53 242.182 116.81 242.122C116.87 242.112 116.88 242.042 116.83 242.032Z" fill="#263238"/>
<path d="M117.37 239.252C114.455 239.36 111.563 239.823 108.76 240.632C105.85 241.482 102.94 242.632 99.92 242.972C99.8 242.972 99.81 243.172 99.92 243.162C101.37 243.002 102.81 242.842 104.25 242.612C105.69 242.382 107.11 242.032 108.53 241.722C111.53 241.062 114.37 239.952 117.38 239.482C117.405 239.474 117.426 239.457 117.44 239.436C117.455 239.415 117.462 239.389 117.461 239.363C117.46 239.337 117.45 239.313 117.434 239.292C117.418 239.272 117.395 239.258 117.37 239.252Z" fill="#263238"/>
<path d="M97.88 198.812C97.88 199.992 101.38 208.522 106.52 209.552C108.19 209.882 110.41 200.822 110.41 200.822L110.73 200.192L115.15 191.342L105.91 181.512L104.55 180.182C104.55 180.182 103.55 182.682 102.22 185.812C102.16 185.952 102.1 186.092 102.04 186.252C101.98 186.412 101.89 186.592 101.82 186.762L101.24 188.172C101.1 188.542 100.95 188.892 100.81 189.272C100.67 189.652 100.53 190.032 100.38 190.422C99.3605 193.16 98.5253 195.963 97.88 198.812Z" fill="#D3766A"/>
<path d="M102.22 185.852C102.514 188.716 103.427 191.483 104.896 193.959C106.366 196.435 108.356 198.562 110.73 200.192L115.15 191.342L105.91 181.512L104.55 180.182C104.55 180.182 103.5 182.722 102.22 185.852Z" fill="#263238"/>
<path d="M132.45 181.092C128.94 198.092 118.37 197.902 114.7 197.092C111.38 196.402 100.14 193.632 101.87 176.362C103.6 159.092 112.62 155.362 120.31 156.532C128 157.702 136 164.092 132.45 181.092Z" fill="#D3766A"/>
<path d="M125.77 194.282C126.49 193.67 127.132 192.972 127.68 192.202C128.241 191.447 128.746 190.651 129.19 189.822C130.083 188.159 130.797 186.406 131.32 184.592C131.867 182.789 132.294 180.951 132.6 179.092L132.99 176.272L133.28 173.442V176.292L133.02 179.142C132.772 181.036 132.378 182.909 131.84 184.742C131.291 186.578 130.53 188.343 129.57 190.002C128.625 191.685 127.329 193.144 125.77 194.282Z" fill="#263238"/>
<path d="M131 176.102C130.61 175.962 130.28 175.772 129.91 175.602C129.505 175.476 129.153 175.22 128.91 174.872C128.855 174.748 128.842 174.61 128.872 174.478C128.903 174.347 128.976 174.228 129.08 174.142C129.314 174.002 129.582 173.928 129.855 173.928C130.128 173.928 130.396 174.002 130.63 174.142C131.152 174.344 131.579 174.732 131.83 175.232C131.878 175.35 131.89 175.478 131.866 175.603C131.842 175.728 131.783 175.843 131.696 175.935C131.608 176.026 131.496 176.091 131.372 176.121C131.249 176.15 131.12 176.144 131 176.102Z" fill="#263238"/>
<path d="M119.07 174.962C119.48 174.962 119.86 174.962 120.27 174.962C120.689 175.023 121.116 174.949 121.49 174.752C121.597 174.668 121.672 174.549 121.703 174.417C121.734 174.284 121.719 174.145 121.66 174.022C121.511 173.793 121.303 173.609 121.059 173.488C120.815 173.366 120.542 173.313 120.27 173.332C119.714 173.284 119.16 173.448 118.72 173.792C118.618 173.874 118.543 173.985 118.504 174.11C118.466 174.235 118.465 174.369 118.503 174.494C118.54 174.62 118.614 174.731 118.715 174.814C118.816 174.898 118.94 174.949 119.07 174.962Z" fill="#263238"/>
<path d="M120.8 179.732C120.8 179.682 120.69 179.732 120.69 179.812C120.49 180.982 120.06 182.282 118.93 182.452V182.512C120.25 182.592 120.79 180.862 120.8 179.732Z" fill="#263238"/>
<path d="M120 178.312C118.17 177.782 117.26 181.492 118.95 181.972C120.64 182.452 121.55 178.742 120 178.312Z" fill="#263238"/>
<path d="M119.24 178.322C118.86 178.452 118.45 178.742 118.05 178.692C117.65 178.642 117.35 178.152 117.14 177.692C117.14 177.692 117.08 177.692 117.07 177.692C116.929 178.017 116.917 178.384 117.035 178.718C117.154 179.052 117.395 179.329 117.71 179.492C118.38 179.752 119.03 179.252 119.39 178.582C119.45 178.512 119.39 178.272 119.24 178.322Z" fill="#263238"/>
<path d="M127.23 181.052C127.23 181.052 127.31 181.132 127.3 181.182C126.97 182.312 126.79 183.672 127.72 184.312C127.72 184.312 127.72 184.392 127.72 184.372C126.48 183.882 126.74 182.082 127.23 181.052Z" fill="#263238"/>
<path d="M128.56 180.122C130.44 180.452 129.64 184.182 127.9 183.872C126.16 183.562 127 179.842 128.56 180.122Z" fill="#263238"/>
<path d="M129.29 180.512C129.54 180.772 129.75 181.192 130.1 181.292C130.45 181.392 130.89 181.062 131.23 180.732C131.23 180.732 131.29 180.732 131.28 180.792C131.15 181.502 130.76 182.202 130.04 182.192C129.32 182.182 129.04 181.472 129.04 180.722C129 180.602 129.18 180.422 129.29 180.512Z" fill="#263238"/>
<path d="M124.13 186.082C124.13 186.082 123.97 187.852 123.78 188.662C123.78 188.742 123.55 188.732 123.27 188.662C122.546 188.627 121.845 188.393 121.245 187.985C120.645 187.578 120.169 187.013 119.87 186.352C119.859 186.333 119.857 186.311 119.862 186.291C119.868 186.27 119.881 186.253 119.9 186.242C119.919 186.231 119.941 186.229 119.961 186.234C119.982 186.24 119.999 186.253 120.01 186.272C120.882 187.219 122.035 187.861 123.3 188.102C123.41 187.882 123.48 185.102 123.61 185.102C124.227 185.303 124.812 185.589 125.35 185.952C125.8 182.262 125.65 178.532 126.16 174.872C126.16 174.843 126.172 174.815 126.192 174.794C126.213 174.774 126.241 174.762 126.27 174.762C126.299 174.762 126.327 174.774 126.348 174.794C126.368 174.815 126.38 174.843 126.38 174.872C126.659 178.874 126.538 182.894 126.02 186.872C126 187.292 124.42 186.292 124.13 186.082Z" fill="#263238"/>
<path d="M102.86 177.992C104.74 178.192 110.45 173.892 112.12 164.932C112.12 164.932 110.06 172.872 109.26 173.932C108.46 174.992 112.45 171.512 113.9 164.302C115.902 166.324 118.185 168.045 120.68 169.412C123.94 170.952 126.04 171.272 126.33 171.072C126.62 170.872 121.85 168.422 120.75 166.622C120.75 166.622 129.14 172.392 133.28 173.422C133.76 173.542 136.02 163.662 130.28 158.332C124.54 153.002 113.46 155.832 110.28 158.032C110.28 158.032 106.96 157.952 102.62 162.152C98.28 166.352 100.84 177.772 102.86 177.992Z" fill="#263238"/>
<path d="M116.27 184.612C115.306 184.276 114.455 183.677 113.815 182.881C113.175 182.085 112.772 181.126 112.65 180.112C112.529 179.099 112.695 178.071 113.129 177.147C113.563 176.223 114.249 175.44 115.106 174.886C115.964 174.332 116.96 174.031 117.981 174.016C119.002 174 120.007 174.272 120.88 174.8C121.754 175.328 122.462 176.091 122.924 177.002C123.385 177.913 123.581 178.935 123.49 179.952C123.427 180.664 123.225 181.356 122.894 181.99C122.563 182.623 122.111 183.186 121.563 183.644C121.016 184.103 120.383 184.449 119.701 184.663C119.019 184.878 118.302 184.955 117.59 184.892C117.14 184.857 116.696 184.763 116.27 184.612ZM119.63 175.022C119.259 174.888 118.873 174.804 118.48 174.772C117.281 174.665 116.087 175.018 115.14 175.761C114.193 176.503 113.564 177.579 113.382 178.768C113.2 179.958 113.479 181.172 114.161 182.164C114.843 183.155 115.877 183.85 117.053 184.105C118.229 184.361 119.458 184.159 120.491 183.54C121.523 182.921 122.28 181.932 122.608 180.774C122.937 179.616 122.812 178.377 122.258 177.308C121.705 176.239 120.765 175.422 119.63 175.022Z" fill="#1577EA"/>
<path d="M128.48 187.272C126.48 186.582 125.48 183.942 126.05 181.172C126.333 179.836 127.033 178.624 128.05 177.712C128.453 177.288 128.958 176.976 129.517 176.807C130.076 176.637 130.67 176.615 131.24 176.742C131.81 176.87 132.337 177.144 132.77 177.536C133.203 177.929 133.527 178.427 133.71 178.982C134.234 180.249 134.339 181.651 134.01 182.982C133.35 185.912 131.01 187.902 128.86 187.412C128.729 187.379 128.601 187.332 128.48 187.272ZM131.3 177.512L131.04 177.432C130.582 177.352 130.111 177.383 129.668 177.522C129.224 177.661 128.82 177.905 128.49 178.232C127.606 179.053 127.001 180.13 126.76 181.312C126.19 183.852 127.18 186.242 128.98 186.642C130.78 187.042 132.69 185.302 133.26 182.762C133.54 181.591 133.453 180.362 133.01 179.242C132.862 178.85 132.633 178.494 132.338 178.196C132.044 177.898 131.69 177.665 131.3 177.512Z" fill="#1577EA"/>
<path d="M123.18 180.512L122.84 179.862C123.84 179.372 125.84 178.862 126.84 180.552L126.22 180.922C125.34 179.432 123.26 180.512 123.18 180.512Z" fill="#1577EA"/>
<path d="M99.19 176.592L98.63 176.122C98.85 175.862 100.81 173.582 102.45 173.682C104.09 173.782 113.31 176.802 113.71 176.932L113.48 177.622C110.81 176.752 103.6 174.482 102.41 174.412C101.22 174.342 99.72 175.962 99.19 176.592Z" fill="#1577EA"/>
<path d="M100.55 182.672C100.77 182.842 101.008 182.986 101.26 183.102C101.506 183.223 101.769 183.307 102.04 183.352C102.369 183.425 102.711 183.425 103.04 183.352C103.311 183.293 103.571 183.192 103.81 183.052C104.156 182.863 104.464 182.612 104.72 182.312L105.13 177.592C105.13 177.592 103.04 171.312 100.3 171.912C97.56 172.512 98.09 180.822 100.55 182.672Z" fill="#D3766A"/>
<path d="M100.55 174.272C100.55 174.272 100.48 174.272 100.55 174.342C102.26 175.702 102.74 177.812 102.9 179.882C102.844 179.654 102.74 179.442 102.595 179.258C102.449 179.075 102.265 178.925 102.056 178.82C101.847 178.714 101.617 178.655 101.383 178.647C101.149 178.639 100.916 178.681 100.7 178.772C100.64 178.772 100.7 178.882 100.7 178.892C101.074 178.883 101.442 178.991 101.752 179.2C102.062 179.41 102.299 179.711 102.43 180.062C102.641 180.649 102.792 181.255 102.88 181.872C102.88 182.072 103.26 182.072 103.25 181.872V181.822C104 179.342 103.13 175.312 100.55 174.272Z" fill="#263238"/>
<path d="M101 182.042C100.98 182.254 101.045 182.466 101.181 182.63C101.317 182.794 101.513 182.897 101.725 182.917C101.937 182.937 102.149 182.872 102.313 182.736C102.477 182.6 102.58 182.404 102.6 182.192C102.61 182.087 102.599 181.981 102.568 181.88C102.537 181.779 102.486 181.686 102.419 181.604C102.351 181.523 102.269 181.456 102.175 181.407C102.082 181.357 101.98 181.327 101.875 181.317C101.77 181.307 101.664 181.318 101.563 181.349C101.462 181.38 101.369 181.431 101.287 181.498C101.206 181.566 101.139 181.648 101.09 181.742C101.04 181.835 101.01 181.937 101 182.042Z" fill="white"/>
<path d="M99.75 180.402C99.7431 180.477 99.7512 180.552 99.7736 180.624C99.7961 180.696 99.8326 180.763 99.8809 180.82C99.9292 180.878 99.9885 180.925 100.055 180.96C100.122 180.995 100.195 181.016 100.27 181.022C100.344 181.029 100.418 181.021 100.488 180.999C100.559 180.977 100.625 180.941 100.681 180.894C100.738 180.847 100.785 180.788 100.819 180.723C100.853 180.657 100.874 180.586 100.88 180.512C100.888 180.438 100.882 180.362 100.86 180.291C100.839 180.219 100.803 180.152 100.756 180.094C100.708 180.036 100.65 179.989 100.583 179.954C100.517 179.919 100.445 179.898 100.37 179.892C100.22 179.878 100.071 179.924 99.955 180.019C99.8389 180.115 99.7652 180.252 99.75 180.402Z" fill="white"/>
<path d="M110.15 172.012L106.11 167.642L105.04 168.802L109.53 172.652L110.15 172.012Z" fill="#1577EA"/>
<path d="M109.21 173.212L104.46 169.622L103.61 170.962L108.72 173.952L109.21 173.212Z" fill="#1577EA"/>
<path d="M88 204.072C80.85 210.782 59.06 237.132 59.09 244.672C59.15 256.162 99.34 271.402 105.64 275.202C108.32 276.832 117.77 248.902 114.94 247.112C112.47 245.552 85.31 238.822 85.37 237.582C85.37 236.582 91.28 223.582 95.7 207.732C99.16 195.332 91.72 200.572 88 204.072Z" fill="#D3766A"/>
<path d="M124.67 256.862C123.41 255.552 124.09 254.862 127.3 255.332C130.51 255.802 142.8 260.332 144.01 255.882C145.22 251.432 127.78 245.332 122.39 244.992C117 244.652 108.14 245.992 108.14 245.992C111.3 247.842 118.52 253.112 124.67 256.862Z" fill="#D3766A"/>
<path d="M129.2 255.742C130.966 255.985 132.718 256.319 134.45 256.742C136.163 257.172 137.899 257.506 139.65 257.742C140.487 257.855 141.338 257.794 142.15 257.562C142.518 257.435 142.846 257.214 143.102 256.921C143.358 256.628 143.534 256.274 143.61 255.892C143.634 255.5 143.569 255.107 143.42 254.744C143.271 254.38 143.042 254.055 142.75 253.792C142.151 253.162 141.48 252.604 140.75 252.132C139.292 251.149 137.761 250.28 136.17 249.532C134.578 248.777 132.945 248.109 131.28 247.532C129.607 246.945 127.917 246.412 126.21 245.932C124.523 245.376 122.772 245.04 121 244.932C122.788 244.89 124.573 245.105 126.3 245.572C128.04 245.972 129.76 246.439 131.46 246.972C133.171 247.521 134.842 248.189 136.46 248.972C138.108 249.686 139.693 250.536 141.2 251.512C141.961 252.029 142.659 252.633 143.28 253.312C143.64 253.657 143.918 254.079 144.091 254.547C144.264 255.015 144.329 255.516 144.28 256.012C144.172 256.505 143.939 256.963 143.603 257.339C143.266 257.716 142.838 257.999 142.36 258.162C141.455 258.413 140.505 258.458 139.58 258.292C136 257.752 132.7 256.432 129.2 255.742Z" fill="#263238"/>
<path d="M169.19 273.542H102.59V276.532H169.19V273.542Z" fill="#C7C7C7"/>
<path d="M129.41 273.542L127.13 276.532H181.76V273.542H129.41Z" fill="#A6A6A6"/>
<path d="M132.25 276.532H197.16L202.57 232.442H137.66L132.25 276.532Z" fill="#C7C7C7"/>
<path d="M163.46 254.512C163.441 255.032 163.528 255.551 163.714 256.037C163.901 256.523 164.184 256.966 164.547 257.34C164.909 257.713 165.344 258.01 165.824 258.211C166.304 258.413 166.819 258.515 167.34 258.512C168.401 258.512 169.418 258.091 170.168 257.34C170.919 256.59 171.34 255.573 171.34 254.512C171.351 253.996 171.258 253.484 171.068 253.004C170.877 252.525 170.593 252.088 170.232 251.72C169.87 251.352 169.439 251.06 168.963 250.861C168.487 250.662 167.976 250.561 167.46 250.562C166.408 250.562 165.398 250.976 164.649 251.716C163.9 252.455 163.473 253.46 163.46 254.512Z" fill="white"/>
<path d="M97 270.582C106.26 276.832 117.09 282.242 128.75 281.852C130.048 281.845 131.306 281.402 132.32 280.592C137.55 280.512 139.08 278.012 139.08 278.012C143.93 276.452 145.15 273.682 145.15 273.682C145.15 273.682 151.29 273.522 151.81 269.792C152.4 265.612 143.66 266.662 138.5 264.292C126.69 258.872 111.41 247.872 108.15 245.972L97 270.582Z" fill="#D3766A"/>
<path d="M122.12 267.322C125.558 268.956 129.103 270.356 132.73 271.512C136.778 272.521 140.896 273.223 145.05 273.612C145.077 273.612 145.102 273.622 145.121 273.641C145.139 273.66 145.15 273.685 145.15 273.712C145.15 273.738 145.139 273.764 145.121 273.783C145.102 273.801 145.077 273.812 145.05 273.812C136.952 273.86 128.996 271.685 122.05 267.522C121.89 267.382 121.94 267.242 122.12 267.322Z" fill="#263238"/>
<path d="M117.81 273.972C121.31 275.272 127.47 277.502 139.08 277.892V277.962C131.753 278.691 124.368 277.369 117.75 274.142C117.54 274.042 117.58 273.892 117.81 273.972Z" fill="#263238"/>
<path d="M115.57 277.592C121.57 279.592 125.65 280.052 132.28 280.592C132.28 280.592 132.33 280.662 132.28 280.662C124.67 280.872 121.89 280.092 115.46 277.822C115.25 277.712 115.33 277.512 115.57 277.592Z" fill="#263238"/>
<path d="M67.92 223.362L92.43 226.042C92.43 226.042 96.69 214.402 98.13 207.622C100.04 198.622 97.13 195.852 88.13 202.622C82.14 207.082 67.92 223.362 67.92 223.362Z" fill="#1577EA"/>
<path d="M67.92 223.362L92.43 226.042C92.43 226.042 96.69 214.402 98.13 207.622C100.04 198.622 97.13 195.852 88.13 202.622C82.14 207.082 67.92 223.362 67.92 223.362Z" fill="#1577EA"/>
<path d="M87.21 212.512C87.21 212.874 87.1027 213.228 86.9016 213.529C86.7005 213.83 86.4147 214.064 86.0803 214.203C85.7459 214.341 85.378 214.377 85.023 214.307C84.668 214.236 84.3419 214.062 84.086 213.806C83.8301 213.55 83.6558 213.224 83.5852 212.869C83.5145 212.514 83.5508 212.146 83.6893 211.812C83.8278 211.477 84.0624 211.191 84.3633 210.99C84.6642 210.789 85.018 210.682 85.38 210.682C85.6207 210.681 85.8592 210.727 86.0819 210.819C86.3045 210.91 86.5068 211.045 86.677 211.215C86.8472 211.385 86.9819 211.587 87.0734 211.81C87.1649 212.033 87.2113 212.271 87.21 212.512Z" fill="white"/>
<path d="M89.44 225.722C89.71 225.722 92.24 225.892 92.44 225.962C92.9 224.582 93.35 223.192 93.83 221.812C94.07 221.122 94.32 220.442 94.58 219.762C94.84 219.082 95.16 218.142 95.42 217.482C95.42 217.382 95.59 217.422 95.56 217.482C95.32 218.382 95.11 219.042 94.89 219.812C94.67 220.582 94.48 221.192 94.26 221.872C93.78 223.312 93.33 224.872 92.78 226.282C91.6602 226.184 90.5479 226.013 89.45 225.772C89.45 225.772 89.4 225.722 89.44 225.722Z" fill="#263238"/>
<path d="M71.7 220.512C75.16 220.652 78.6 220.842 82.05 221.182C83.76 221.352 85.48 221.542 87.19 221.762C88.9 221.982 90.59 222.382 92.3 222.582C92.39 222.582 92.37 222.742 92.3 222.722C90.6 222.442 88.85 222.382 87.14 222.192C85.43 222.002 83.71 221.812 81.99 221.632C78.56 221.282 75.13 220.932 71.7 220.632C71.58 220.652 71.61 220.512 71.7 220.512Z" fill="#263238"/>
<path d="M201.56 239.892C204.01 243.672 210.05 248.082 210.88 251.322C211.114 252.113 211.086 252.959 210.801 253.733C210.517 254.508 209.99 255.17 209.3 255.622C209.3 255.622 212.8 256.822 213.07 259.892C213.2 261.462 210.81 263.072 210.81 263.072C210.81 263.072 213.57 264.162 213.64 266.902C213.7 269.082 211.29 270.362 211.29 270.362C211.29 270.362 213.45 272.642 212.8 274.882C211.47 279.432 192.89 281.882 189.11 275.422C187.35 272.422 191.92 272.052 191.92 272.052C191.92 272.052 185.23 270.972 184.62 267.152C184.01 263.332 189.99 263.242 189.99 263.242C189.99 263.242 183.51 262.132 183.28 258.112C183.04 253.932 189.03 254.852 189.03 254.852C189.03 254.852 184.53 252.592 185.03 249.472C185.9 244.332 196.5 249.802 200.46 248.292L201.56 239.892Z" fill="#D3766A"/>
<path d="M210.94 270.622C211 270.622 211.03 270.692 210.94 270.712C204.8 273.123 198.072 273.608 191.65 272.102C191.44 272.102 191.44 271.702 191.65 271.712C198.099 272.286 204.597 271.919 210.94 270.622Z" fill="#263238"/>
<path d="M210.9 263.102C210.97 263.102 211 263.202 210.9 263.232C204.79 265.562 196.66 266.142 189.76 263.432C189.52 263.342 189.4 263.022 189.68 263.112C194.44 264.562 205 264.402 210.9 263.102Z" fill="#263238"/>
<path d="M188.59 254.512C195.3 256.852 202.09 256.802 209.05 255.752C209.14 255.752 209.15 255.862 209.05 255.892C205.78 257.342 201.27 257.552 197.75 257.412C194.478 257.348 191.279 256.431 188.47 254.752C188.39 254.662 188.44 254.442 188.59 254.512Z" fill="#263238"/>
<path d="M428.46 372.072C427.413 375.907 426.72 379.83 426.39 383.792C426.5 383.982 426.48 384.712 426.39 384.512C426.39 385.152 425.39 385.032 425.39 384.402C425.39 383.992 425.39 383.572 425.39 383.172C423.1 380.332 419.78 378.532 417.09 376.062C414.926 374.122 413.349 371.614 412.54 368.822C410.31 361.152 412.4 353.012 409.72 345.352C407.41 338.752 403.27 333.012 399.72 327.032C396.02 320.702 393.29 314.032 393.02 306.642C392.8 300.972 393.48 293.412 397.8 289.162C402.38 284.642 408.06 288.022 411.57 292.052C421.79 303.722 426.49 318.512 428.4 333.512C429.4 341.862 430.53 350.252 430.28 358.682C430.123 363.195 429.513 367.681 428.46 372.072Z" fill="#1577EA"/>
<path d="M426.44 386.852C426.992 378.974 426.898 371.064 426.16 363.202C426.16 363.202 426.16 363.202 426.16 363.122C426.28 356.732 426.79 350.362 426.54 343.962C426.23 337.041 425.29 330.162 423.73 323.412C423.725 323.399 423.716 323.388 423.704 323.38C423.693 323.372 423.679 323.368 423.665 323.368C423.651 323.368 423.637 323.372 423.626 323.38C423.614 323.388 423.605 323.399 423.6 323.412C424.847 330.046 425.593 336.765 425.83 343.512C425.957 347.125 425.927 350.735 425.74 354.342C425.68 355.512 425.57 356.702 425.49 357.882C422.836 339.938 416.357 322.773 406.49 307.552C406.36 307.352 405.99 307.552 406.12 307.782C413.172 319.35 418.394 331.939 421.6 345.102C416.71 336.042 409.32 328.592 403.84 319.882C403.84 319.832 403.73 319.882 403.76 319.932C408.68 329.622 416.82 337.272 422 346.822C422.9 350.712 423.64 354.642 424.18 358.592C424.917 364.012 425.311 369.473 425.36 374.942C422.36 369.382 419.29 364.052 416.86 358.162C416.79 358.002 416.57 358.112 416.62 358.272C418.69 364.392 421.48 370.972 425.38 376.192C425.38 380.062 425.29 383.942 425.06 387.802C424.45 398.132 422.69 408.312 421.87 418.602C421.881 418.656 421.911 418.705 421.953 418.739C421.996 418.774 422.05 418.793 422.105 418.793C422.16 418.793 422.214 418.774 422.256 418.739C422.299 418.705 422.329 418.656 422.34 418.602C424.423 408.124 425.793 397.516 426.44 386.852Z" fill="#263238"/>
<path d="M415.47 307.232C415.47 307.162 415.33 307.232 415.36 307.292C417.24 312.502 418.31 317.782 419.67 323.132C419.685 323.178 419.716 323.217 419.757 323.242C419.799 323.266 419.848 323.275 419.895 323.267C419.943 323.258 419.986 323.233 420.016 323.195C420.046 323.158 420.062 323.11 420.06 323.062C419.51 317.642 417.57 312.232 415.47 307.232Z" fill="#263238"/>
<path d="M463.36 333.622C462.092 336.673 460.636 339.642 459 342.512C455.6 348.682 452.06 354.322 451.42 361.512C451.13 364.722 451.03 367.942 450.06 371.032C449.163 373.687 447.882 376.197 446.26 378.482C442.58 383.842 437.98 388.482 434.57 394.022C431.024 399.823 428.405 406.143 426.81 412.752C426.72 413.112 426.15 413.022 426.24 412.662C426.24 412.662 426.24 412.602 426.24 412.572C426.234 412.549 426.234 412.525 426.24 412.502C425.7 397.102 426.93 381.592 431.63 366.842C433.704 360.354 436.196 354.008 439.09 347.842C441.6 342.492 444.74 337.352 449.16 333.352C452.02 330.772 458.24 325.882 462.32 328.472C464.27 329.732 464.13 331.702 463.36 333.622Z" fill="#1577EA"/>
<path d="M447.88 368.512C445.166 372.977 442.18 377.272 438.94 381.372C437.45 383.322 435.94 385.252 434.45 387.202C433.74 388.122 432.96 389.032 432.31 390.022C432.72 388.402 433.11 386.782 433.53 385.162C435.53 377.392 437.42 369.542 440.38 362.062C443.409 354.802 446.982 347.782 451.07 341.062C451.17 340.892 450.89 340.762 450.78 340.932C447.53 346.282 444.23 351.622 441.49 357.262C439.98 360.409 438.664 363.645 437.55 366.952C438.801 359.935 440.555 353.017 442.8 346.252C442.8 346.192 442.73 346.142 442.71 346.202C439.773 353.051 437.933 360.32 437.26 367.742C436.59 369.742 435.98 371.742 435.41 373.792C432.98 382.402 430.85 391.102 428.88 399.842C428.843 394.102 429.338 388.371 430.36 382.722C430.36 382.592 430.19 382.562 430.16 382.722C428.657 388.613 428.153 394.714 428.67 400.772C427.93 404.105 427.203 407.439 426.49 410.772C424.98 417.872 423.12 425.092 422.23 432.302C422.231 432.337 422.244 432.37 422.266 432.396C422.289 432.423 422.32 432.44 422.354 432.446C422.389 432.452 422.424 432.446 422.454 432.429C422.484 432.412 422.508 432.384 422.52 432.352C423.57 428.462 424.21 424.442 425.08 420.502C425.95 416.562 426.83 412.622 427.75 408.692C429.083 402.965 430.473 397.249 431.92 391.542C432.87 389.452 434.71 387.592 436.1 385.842C437.61 383.912 439.1 381.982 440.6 380.032C443.366 376.417 445.84 372.588 448 368.582C448.07 368.512 447.93 368.442 447.88 368.512Z" fill="#263238"/>
<path d="M448.54 361.942C445.152 366.265 442.22 370.926 439.79 375.852C439.79 375.912 439.85 375.982 439.89 375.922C442.84 371.302 445.73 366.642 448.68 362.022C448.73 361.942 448.6 361.862 448.54 361.942Z" fill="#263238"/>
<path d="M379.72 351.682C381.85 355.042 384.29 359.072 383.59 363.232C383.15 365.862 381.32 368.052 381.08 370.732C380.54 376.632 386.54 380.292 390.89 382.902C401.72 389.422 416.45 395.042 418.89 409.122C418.98 409.612 419.84 409.462 419.76 408.972C419.768 408.939 419.768 408.905 419.76 408.872C419.76 408.872 419.82 408.872 419.81 408.792C420.93 401.595 420.59 394.245 418.81 387.182C416.95 379.952 413.51 373.512 409.5 367.252C402.72 356.652 395.56 345.812 385.62 337.882C382.87 335.682 377.26 331.762 375.35 337.032C373.44 342.302 377.12 347.592 379.72 351.682Z" fill="#1577EA"/>
<path d="M390.28 374.302C397.58 381.612 408.88 385.432 415.28 393.692C411.406 380.886 404.564 369.175 395.31 359.512C395.07 359.262 395.42 358.872 395.68 359.112C402.361 365.127 407.797 372.394 411.68 380.502C409.796 374.807 407.392 369.297 404.5 364.042C404.39 363.842 404.68 363.652 404.8 363.852C408.351 369.574 410.977 375.821 412.58 382.362C421.27 401.282 422.88 423.812 422 444.142C422 444.432 421.55 444.462 421.55 444.142C421.38 428.142 420.49 411.912 416.06 396.462C415.96 396.132 415.86 395.822 415.77 395.462C408.85 386.582 397.6 382.772 390.14 374.372C390.1 374.352 390.2 374.222 390.28 374.302Z" fill="#263238"/>
<path d="M388.41 367.852C392.22 371.082 395.97 374.392 399.78 377.622C399.78 377.622 399.78 377.722 399.78 377.692C395.506 375.044 391.624 371.81 388.25 368.082C388.237 368.056 388.232 368.028 388.234 367.999C388.236 367.971 388.246 367.943 388.262 367.92C388.278 367.896 388.301 367.878 388.327 367.866C388.353 367.854 388.382 367.849 388.41 367.852Z" fill="#263238"/>
<path d="M387.26 353.262C390.717 358.469 394.593 363.385 398.85 367.962C398.85 368.022 398.85 368.122 398.76 368.062C394.025 363.899 390.067 358.929 387.07 353.382C387.054 353.357 387.049 353.326 387.055 353.297C387.062 353.268 387.08 353.243 387.105 353.227C387.13 353.211 387.161 353.206 387.19 353.212C387.219 353.219 387.244 353.237 387.26 353.262Z" fill="#263238"/>
<path d="M407.04 456.562H439.27L434.92 413.202H412L407.04 456.562Z" fill="#455A64"/>
<path d="M411.19 420.252H435.63L434.93 413.202H412L411.19 420.252Z" fill="#263238"/>
<path d="M408.05 415.322H438.26V408.402H408.05V415.322Z" fill="#455A64"/>
</svg>
